<mxfile host="app.diagrams.net" modified="2024-06-12T16:03:46.282Z" agent="Mozilla/5.0 (Windows NT 10.0; Win64; x64) AppleWebKit/537.36 (KHTML, like Gecko) Chrome/125.0.0.0 Safari/537.36" etag="zFd6htB88IokWad18wX6" version="24.5.3" type="github">
  <diagram name="第 1 页" id="2a0fSTGjJaOes1gLTjzv">
    <mxGraphModel dx="1365" dy="767" grid="1" gridSize="10" guides="1" tooltips="1" connect="1" arrows="1" fold="1" page="1" pageScale="1" pageWidth="827" pageHeight="1169" background="none" math="0" shadow="0">
      <root>
        <mxCell id="0" />
        <mxCell id="1" parent="0" />
        <mxCell id="dkbqTGL4VmAJF5eFEC8l-1" value="" style="ellipse;html=1;shape=startState;fillColor=#000000;strokeColor=#ff0000;" vertex="1" parent="1">
          <mxGeometry x="414" y="80" width="30" height="30" as="geometry" />
        </mxCell>
        <mxCell id="dkbqTGL4VmAJF5eFEC8l-2" value="" style="edgeStyle=orthogonalEdgeStyle;html=1;verticalAlign=bottom;endArrow=open;endSize=8;strokeColor=#ff0000;rounded=0;" edge="1" source="dkbqTGL4VmAJF5eFEC8l-1" parent="1">
          <mxGeometry relative="1" as="geometry">
            <mxPoint x="429" y="170" as="targetPoint" />
          </mxGeometry>
        </mxCell>
        <mxCell id="dkbqTGL4VmAJF5eFEC8l-16" style="edgeStyle=orthogonalEdgeStyle;rounded=0;orthogonalLoop=1;jettySize=auto;html=1;" edge="1" parent="1" target="dkbqTGL4VmAJF5eFEC8l-18">
          <mxGeometry relative="1" as="geometry">
            <mxPoint x="700" y="180" as="targetPoint" />
            <mxPoint x="470" y="180" as="sourcePoint" />
          </mxGeometry>
        </mxCell>
        <mxCell id="dkbqTGL4VmAJF5eFEC8l-3" value="显示商品页面" style="rounded=1;whiteSpace=wrap;html=1;arcSize=40;fontColor=#000000;fillColor=#ffffc0;strokeColor=#ff0000;" vertex="1" parent="1">
          <mxGeometry x="369" y="170" width="120" height="40" as="geometry" />
        </mxCell>
        <mxCell id="dkbqTGL4VmAJF5eFEC8l-4" value="" style="edgeStyle=orthogonalEdgeStyle;html=1;verticalAlign=bottom;endArrow=open;endSize=8;strokeColor=#ff0000;rounded=0;" edge="1" source="dkbqTGL4VmAJF5eFEC8l-3" parent="1">
          <mxGeometry relative="1" as="geometry">
            <mxPoint x="429" y="270" as="targetPoint" />
          </mxGeometry>
        </mxCell>
        <mxCell id="dkbqTGL4VmAJF5eFEC8l-5" value="查看商品" style="text;html=1;align=center;verticalAlign=middle;resizable=0;points=[];autosize=1;strokeColor=none;fillColor=none;" vertex="1" parent="1">
          <mxGeometry x="440" y="130" width="70" height="30" as="geometry" />
        </mxCell>
        <mxCell id="dkbqTGL4VmAJF5eFEC8l-6" value="查询商品" style="text;html=1;align=center;verticalAlign=middle;resizable=0;points=[];autosize=1;strokeColor=none;fillColor=none;" vertex="1" parent="1">
          <mxGeometry x="415" y="218" width="70" height="30" as="geometry" />
        </mxCell>
        <mxCell id="dkbqTGL4VmAJF5eFEC8l-14" style="edgeStyle=orthogonalEdgeStyle;rounded=0;orthogonalLoop=1;jettySize=auto;html=1;exitX=1;exitY=0.5;exitDx=0;exitDy=0;" edge="1" parent="1" source="dkbqTGL4VmAJF5eFEC8l-7" target="dkbqTGL4VmAJF5eFEC8l-10">
          <mxGeometry relative="1" as="geometry" />
        </mxCell>
        <mxCell id="dkbqTGL4VmAJF5eFEC8l-7" value="页面查询加载" style="rounded=1;whiteSpace=wrap;html=1;arcSize=40;fontColor=#000000;fillColor=#ffffc0;strokeColor=#ff0000;" vertex="1" parent="1">
          <mxGeometry x="365" y="270" width="120" height="40" as="geometry" />
        </mxCell>
        <mxCell id="dkbqTGL4VmAJF5eFEC8l-8" value="" style="edgeStyle=orthogonalEdgeStyle;html=1;verticalAlign=bottom;endArrow=open;endSize=8;strokeColor=#ff0000;rounded=0;entryX=0;entryY=0.5;entryDx=0;entryDy=0;" edge="1" source="dkbqTGL4VmAJF5eFEC8l-7" parent="1" target="dkbqTGL4VmAJF5eFEC8l-3">
          <mxGeometry relative="1" as="geometry">
            <mxPoint x="425" y="380" as="targetPoint" />
            <Array as="points">
              <mxPoint x="340" y="290" />
              <mxPoint x="340" y="190" />
            </Array>
          </mxGeometry>
        </mxCell>
        <mxCell id="dkbqTGL4VmAJF5eFEC8l-9" value="查询成功" style="text;html=1;align=center;verticalAlign=middle;resizable=0;points=[];autosize=1;strokeColor=none;fillColor=none;" vertex="1" parent="1">
          <mxGeometry x="270" y="240" width="70" height="30" as="geometry" />
        </mxCell>
        <mxCell id="dkbqTGL4VmAJF5eFEC8l-10" value="错误提示页面" style="rounded=1;whiteSpace=wrap;html=1;arcSize=40;fontColor=#000000;fillColor=#ffffc0;strokeColor=#ff0000;" vertex="1" parent="1">
          <mxGeometry x="530" y="270" width="120" height="40" as="geometry" />
        </mxCell>
        <mxCell id="dkbqTGL4VmAJF5eFEC8l-11" value="" style="edgeStyle=orthogonalEdgeStyle;html=1;verticalAlign=bottom;endArrow=open;endSize=8;strokeColor=#ff0000;rounded=0;" edge="1" source="dkbqTGL4VmAJF5eFEC8l-10" parent="1" target="dkbqTGL4VmAJF5eFEC8l-3">
          <mxGeometry relative="1" as="geometry">
            <mxPoint x="590" y="160" as="targetPoint" />
            <mxPoint x="610" y="50" as="sourcePoint" />
            <Array as="points">
              <mxPoint x="600" y="210" />
              <mxPoint x="601" y="210" />
              <mxPoint x="601" y="190" />
            </Array>
          </mxGeometry>
        </mxCell>
        <mxCell id="dkbqTGL4VmAJF5eFEC8l-12" value="关闭" style="text;html=1;align=center;verticalAlign=middle;resizable=0;points=[];autosize=1;strokeColor=none;fillColor=none;" vertex="1" parent="1">
          <mxGeometry x="585" y="228" width="50" height="30" as="geometry" />
        </mxCell>
        <mxCell id="dkbqTGL4VmAJF5eFEC8l-15" value="查询失败" style="text;html=1;align=center;verticalAlign=middle;resizable=0;points=[];autosize=1;strokeColor=none;fillColor=none;" vertex="1" parent="1">
          <mxGeometry x="480" y="248" width="70" height="30" as="geometry" />
        </mxCell>
        <mxCell id="dkbqTGL4VmAJF5eFEC8l-17" value="退出查看" style="text;html=1;align=center;verticalAlign=middle;resizable=0;points=[];autosize=1;strokeColor=none;fillColor=none;" vertex="1" parent="1">
          <mxGeometry x="535" y="158" width="70" height="30" as="geometry" />
        </mxCell>
        <mxCell id="dkbqTGL4VmAJF5eFEC8l-18" value="" style="ellipse;html=1;shape=endState;fillColor=#000000;strokeColor=#ff0000;" vertex="1" parent="1">
          <mxGeometry x="685" y="165" width="30" height="30" as="geometry" />
        </mxCell>
        <mxCell id="dkbqTGL4VmAJF5eFEC8l-19" value="User" style="swimlane;fontStyle=1;align=center;verticalAlign=top;childLayout=stackLayout;horizontal=1;startSize=26;horizontalStack=0;resizeParent=1;resizeParentMax=0;resizeLast=0;collapsible=1;marginBottom=0;whiteSpace=wrap;html=1;" vertex="1" parent="1">
          <mxGeometry x="60" y="400" width="160" height="86" as="geometry" />
        </mxCell>
        <mxCell id="dkbqTGL4VmAJF5eFEC8l-20" value="+ field: type" style="text;strokeColor=none;fillColor=none;align=left;verticalAlign=top;spacingLeft=4;spacingRight=4;overflow=hidden;rotatable=0;points=[[0,0.5],[1,0.5]];portConstraint=eastwest;whiteSpace=wrap;html=1;" vertex="1" parent="dkbqTGL4VmAJF5eFEC8l-19">
          <mxGeometry y="26" width="160" height="26" as="geometry" />
        </mxCell>
        <mxCell id="dkbqTGL4VmAJF5eFEC8l-21" value="" style="line;strokeWidth=1;fillColor=none;align=left;verticalAlign=middle;spacingTop=-1;spacingLeft=3;spacingRight=3;rotatable=0;labelPosition=right;points=[];portConstraint=eastwest;strokeColor=inherit;" vertex="1" parent="dkbqTGL4VmAJF5eFEC8l-19">
          <mxGeometry y="52" width="160" height="8" as="geometry" />
        </mxCell>
        <mxCell id="dkbqTGL4VmAJF5eFEC8l-22" value="+ method(type): type" style="text;strokeColor=none;fillColor=none;align=left;verticalAlign=top;spacingLeft=4;spacingRight=4;overflow=hidden;rotatable=0;points=[[0,0.5],[1,0.5]];portConstraint=eastwest;whiteSpace=wrap;html=1;" vertex="1" parent="dkbqTGL4VmAJF5eFEC8l-19">
          <mxGeometry y="60" width="160" height="26" as="geometry" />
        </mxCell>
        <mxCell id="dkbqTGL4VmAJF5eFEC8l-23" value="买家" style="swimlane;fontStyle=1;align=center;verticalAlign=top;childLayout=stackLayout;horizontal=1;startSize=26;horizontalStack=0;resizeParent=1;resizeParentMax=0;resizeLast=0;collapsible=1;marginBottom=0;whiteSpace=wrap;html=1;" vertex="1" parent="1">
          <mxGeometry x="205" y="542" width="160" height="86" as="geometry" />
        </mxCell>
        <mxCell id="dkbqTGL4VmAJF5eFEC8l-24" value="+ field: type" style="text;strokeColor=none;fillColor=none;align=left;verticalAlign=top;spacingLeft=4;spacingRight=4;overflow=hidden;rotatable=0;points=[[0,0.5],[1,0.5]];portConstraint=eastwest;whiteSpace=wrap;html=1;" vertex="1" parent="dkbqTGL4VmAJF5eFEC8l-23">
          <mxGeometry y="26" width="160" height="26" as="geometry" />
        </mxCell>
        <mxCell id="dkbqTGL4VmAJF5eFEC8l-25" value="" style="line;strokeWidth=1;fillColor=none;align=left;verticalAlign=middle;spacingTop=-1;spacingLeft=3;spacingRight=3;rotatable=0;labelPosition=right;points=[];portConstraint=eastwest;strokeColor=inherit;" vertex="1" parent="dkbqTGL4VmAJF5eFEC8l-23">
          <mxGeometry y="52" width="160" height="8" as="geometry" />
        </mxCell>
        <mxCell id="dkbqTGL4VmAJF5eFEC8l-26" value="+ method(type): type" style="text;strokeColor=none;fillColor=none;align=left;verticalAlign=top;spacingLeft=4;spacingRight=4;overflow=hidden;rotatable=0;points=[[0,0.5],[1,0.5]];portConstraint=eastwest;whiteSpace=wrap;html=1;" vertex="1" parent="dkbqTGL4VmAJF5eFEC8l-23">
          <mxGeometry y="60" width="160" height="26" as="geometry" />
        </mxCell>
        <mxCell id="dkbqTGL4VmAJF5eFEC8l-27" value="管理员" style="swimlane;fontStyle=1;align=center;verticalAlign=top;childLayout=stackLayout;horizontal=1;startSize=26;horizontalStack=0;resizeParent=1;resizeParentMax=0;resizeLast=0;collapsible=1;marginBottom=0;whiteSpace=wrap;html=1;" vertex="1" parent="1">
          <mxGeometry x="10" y="542" width="160" height="86" as="geometry" />
        </mxCell>
        <mxCell id="dkbqTGL4VmAJF5eFEC8l-28" value="+ field: type" style="text;strokeColor=none;fillColor=none;align=left;verticalAlign=top;spacingLeft=4;spacingRight=4;overflow=hidden;rotatable=0;points=[[0,0.5],[1,0.5]];portConstraint=eastwest;whiteSpace=wrap;html=1;" vertex="1" parent="dkbqTGL4VmAJF5eFEC8l-27">
          <mxGeometry y="26" width="160" height="26" as="geometry" />
        </mxCell>
        <mxCell id="dkbqTGL4VmAJF5eFEC8l-29" value="" style="line;strokeWidth=1;fillColor=none;align=left;verticalAlign=middle;spacingTop=-1;spacingLeft=3;spacingRight=3;rotatable=0;labelPosition=right;points=[];portConstraint=eastwest;strokeColor=inherit;" vertex="1" parent="dkbqTGL4VmAJF5eFEC8l-27">
          <mxGeometry y="52" width="160" height="8" as="geometry" />
        </mxCell>
        <mxCell id="dkbqTGL4VmAJF5eFEC8l-30" value="+ method(type): type" style="text;strokeColor=none;fillColor=none;align=left;verticalAlign=top;spacingLeft=4;spacingRight=4;overflow=hidden;rotatable=0;points=[[0,0.5],[1,0.5]];portConstraint=eastwest;whiteSpace=wrap;html=1;" vertex="1" parent="dkbqTGL4VmAJF5eFEC8l-27">
          <mxGeometry y="60" width="160" height="26" as="geometry" />
        </mxCell>
        <mxCell id="dkbqTGL4VmAJF5eFEC8l-32" value="" style="endArrow=block;endFill=0;endSize=12;html=1;rounded=0;entryX=0.048;entryY=0.953;entryDx=0;entryDy=0;entryPerimeter=0;" edge="1" parent="1" target="dkbqTGL4VmAJF5eFEC8l-22">
          <mxGeometry width="160" relative="1" as="geometry">
            <mxPoint x="70" y="540" as="sourcePoint" />
            <mxPoint x="170" y="540" as="targetPoint" />
          </mxGeometry>
        </mxCell>
        <mxCell id="dkbqTGL4VmAJF5eFEC8l-33" value="" style="endArrow=block;endFill=0;endSize=12;html=1;rounded=0;entryX=0.848;entryY=1.021;entryDx=0;entryDy=0;entryPerimeter=0;" edge="1" parent="1" source="dkbqTGL4VmAJF5eFEC8l-23" target="dkbqTGL4VmAJF5eFEC8l-22">
          <mxGeometry width="160" relative="1" as="geometry">
            <mxPoint x="260" y="520" as="sourcePoint" />
            <mxPoint x="420" y="520" as="targetPoint" />
          </mxGeometry>
        </mxCell>
        <mxCell id="dkbqTGL4VmAJF5eFEC8l-34" value="Goods" style="swimlane;fontStyle=1;align=center;verticalAlign=top;childLayout=stackLayout;horizontal=1;startSize=26;horizontalStack=0;resizeParent=1;resizeParentMax=0;resizeLast=0;collapsible=1;marginBottom=0;whiteSpace=wrap;html=1;" vertex="1" parent="1">
          <mxGeometry x="510" y="440" width="240" height="236" as="geometry" />
        </mxCell>
        <mxCell id="dkbqTGL4VmAJF5eFEC8l-35" value="+ Goodsld: int&lt;div&gt;+ Goodsld: int&lt;br&gt;&lt;/div&gt;" style="text;strokeColor=none;fillColor=none;align=left;verticalAlign=top;spacingLeft=4;spacingRight=4;overflow=hidden;rotatable=0;points=[[0,0.5],[1,0.5]];portConstraint=eastwest;whiteSpace=wrap;html=1;" vertex="1" parent="dkbqTGL4VmAJF5eFEC8l-34">
          <mxGeometry y="26" width="240" height="124" as="geometry" />
        </mxCell>
        <mxCell id="dkbqTGL4VmAJF5eFEC8l-36" value="" style="line;strokeWidth=1;fillColor=none;align=left;verticalAlign=middle;spacingTop=-1;spacingLeft=3;spacingRight=3;rotatable=0;labelPosition=right;points=[];portConstraint=eastwest;strokeColor=inherit;" vertex="1" parent="dkbqTGL4VmAJF5eFEC8l-34">
          <mxGeometry y="150" width="240" height="60" as="geometry" />
        </mxCell>
        <mxCell id="dkbqTGL4VmAJF5eFEC8l-37" value="+ method(type): type" style="text;strokeColor=none;fillColor=none;align=left;verticalAlign=top;spacingLeft=4;spacingRight=4;overflow=hidden;rotatable=0;points=[[0,0.5],[1,0.5]];portConstraint=eastwest;whiteSpace=wrap;html=1;" vertex="1" parent="dkbqTGL4VmAJF5eFEC8l-34">
          <mxGeometry y="210" width="240" height="26" as="geometry" />
        </mxCell>
        <mxCell id="dkbqTGL4VmAJF5eFEC8l-39" value="Classname" style="swimlane;fontStyle=1;align=center;verticalAlign=top;childLayout=stackLayout;horizontal=1;startSize=26;horizontalStack=0;resizeParent=1;resizeParentMax=0;resizeLast=0;collapsible=1;marginBottom=0;whiteSpace=wrap;html=1;" vertex="1" parent="1">
          <mxGeometry x="80" y="710" width="160" height="170" as="geometry" />
        </mxCell>
        <mxCell id="dkbqTGL4VmAJF5eFEC8l-40" value="+ field: type" style="text;strokeColor=none;fillColor=none;align=left;verticalAlign=top;spacingLeft=4;spacingRight=4;overflow=hidden;rotatable=0;points=[[0,0.5],[1,0.5]];portConstraint=eastwest;whiteSpace=wrap;html=1;" vertex="1" parent="dkbqTGL4VmAJF5eFEC8l-39">
          <mxGeometry y="26" width="160" height="26" as="geometry" />
        </mxCell>
        <mxCell id="dkbqTGL4VmAJF5eFEC8l-41" value="" style="line;strokeWidth=1;fillColor=none;align=left;verticalAlign=middle;spacingTop=-1;spacingLeft=3;spacingRight=3;rotatable=0;labelPosition=right;points=[];portConstraint=eastwest;strokeColor=inherit;" vertex="1" parent="dkbqTGL4VmAJF5eFEC8l-39">
          <mxGeometry y="52" width="160" height="8" as="geometry" />
        </mxCell>
        <mxCell id="dkbqTGL4VmAJF5eFEC8l-42" value="+ method(type): type" style="text;strokeColor=none;fillColor=none;align=left;verticalAlign=top;spacingLeft=4;spacingRight=4;overflow=hidden;rotatable=0;points=[[0,0.5],[1,0.5]];portConstraint=eastwest;whiteSpace=wrap;html=1;" vertex="1" parent="dkbqTGL4VmAJF5eFEC8l-39">
          <mxGeometry y="60" width="160" height="110" as="geometry" />
        </mxCell>
        <mxCell id="dkbqTGL4VmAJF5eFEC8l-43" value="" style="ellipse;html=1;shape=startState;fillColor=#000000;strokeColor=#ff0000;" vertex="1" parent="1">
          <mxGeometry x="399" y="770" width="30" height="30" as="geometry" />
        </mxCell>
        <mxCell id="dkbqTGL4VmAJF5eFEC8l-44" value="" style="edgeStyle=orthogonalEdgeStyle;html=1;verticalAlign=bottom;endArrow=open;endSize=8;strokeColor=#ff0000;rounded=0;" edge="1" source="dkbqTGL4VmAJF5eFEC8l-43" parent="1">
          <mxGeometry relative="1" as="geometry">
            <mxPoint x="414" y="860" as="targetPoint" />
          </mxGeometry>
        </mxCell>
        <mxCell id="dkbqTGL4VmAJF5eFEC8l-45" value="购买,库存充足" style="text;html=1;align=center;verticalAlign=middle;resizable=0;points=[];autosize=1;strokeColor=none;fillColor=none;" vertex="1" parent="1">
          <mxGeometry x="425" y="810" width="100" height="30" as="geometry" />
        </mxCell>
        <mxCell id="dkbqTGL4VmAJF5eFEC8l-46" value="待发货" style="rounded=1;whiteSpace=wrap;html=1;arcSize=40;fontColor=#000000;fillColor=#ffffc0;strokeColor=#ff0000;" vertex="1" parent="1">
          <mxGeometry x="354" y="860" width="120" height="40" as="geometry" />
        </mxCell>
        <mxCell id="dkbqTGL4VmAJF5eFEC8l-47" value="" style="edgeStyle=orthogonalEdgeStyle;html=1;verticalAlign=bottom;endArrow=open;endSize=8;strokeColor=#ff0000;rounded=0;" edge="1" source="dkbqTGL4VmAJF5eFEC8l-46" parent="1">
          <mxGeometry relative="1" as="geometry">
            <mxPoint x="414" y="960" as="targetPoint" />
          </mxGeometry>
        </mxCell>
        <mxCell id="dkbqTGL4VmAJF5eFEC8l-48" value="商品发出" style="text;html=1;align=center;verticalAlign=middle;resizable=0;points=[];autosize=1;strokeColor=none;fillColor=none;" vertex="1" parent="1">
          <mxGeometry x="414" y="910" width="70" height="30" as="geometry" />
        </mxCell>
        <mxCell id="dkbqTGL4VmAJF5eFEC8l-49" value="已发货" style="rounded=1;whiteSpace=wrap;html=1;arcSize=40;fontColor=#000000;fillColor=#ffffc0;strokeColor=#ff0000;" vertex="1" parent="1">
          <mxGeometry x="354" y="960" width="120" height="40" as="geometry" />
        </mxCell>
        <mxCell id="dkbqTGL4VmAJF5eFEC8l-50" value="" style="edgeStyle=orthogonalEdgeStyle;html=1;verticalAlign=bottom;endArrow=open;endSize=8;strokeColor=#ff0000;rounded=0;" edge="1" source="dkbqTGL4VmAJF5eFEC8l-49" parent="1">
          <mxGeometry relative="1" as="geometry">
            <mxPoint x="414" y="1060" as="targetPoint" />
          </mxGeometry>
        </mxCell>
        <mxCell id="dkbqTGL4VmAJF5eFEC8l-51" value="买家收获&lt;div&gt;&lt;br&gt;&lt;/div&gt;" style="text;html=1;align=center;verticalAlign=middle;resizable=0;points=[];autosize=1;strokeColor=none;fillColor=none;" vertex="1" parent="1">
          <mxGeometry x="405" y="1003" width="70" height="40" as="geometry" />
        </mxCell>
        <mxCell id="dkbqTGL4VmAJF5eFEC8l-52" value="已收货" style="rounded=1;whiteSpace=wrap;html=1;arcSize=40;fontColor=#000000;fillColor=#ffffc0;strokeColor=#ff0000;" vertex="1" parent="1">
          <mxGeometry x="350" y="1060" width="120" height="40" as="geometry" />
        </mxCell>
        <mxCell id="dkbqTGL4VmAJF5eFEC8l-53" value="" style="edgeStyle=orthogonalEdgeStyle;html=1;verticalAlign=bottom;endArrow=open;endSize=8;strokeColor=#ff0000;rounded=0;" edge="1" source="dkbqTGL4VmAJF5eFEC8l-52" parent="1">
          <mxGeometry relative="1" as="geometry">
            <mxPoint x="410" y="1150" as="targetPoint" />
          </mxGeometry>
        </mxCell>
        <mxCell id="dkbqTGL4VmAJF5eFEC8l-54" value="客户发出退货申请" style="text;html=1;align=center;verticalAlign=middle;resizable=0;points=[];autosize=1;strokeColor=none;fillColor=none;" vertex="1" parent="1">
          <mxGeometry x="399" y="1110" width="120" height="30" as="geometry" />
        </mxCell>
        <mxCell id="dkbqTGL4VmAJF5eFEC8l-55" value="退货处理" style="rounded=1;whiteSpace=wrap;html=1;arcSize=40;fontColor=#000000;fillColor=#ffffc0;strokeColor=#ff0000;" vertex="1" parent="1">
          <mxGeometry x="355" y="1150" width="120" height="40" as="geometry" />
        </mxCell>
        <mxCell id="dkbqTGL4VmAJF5eFEC8l-56" value="" style="edgeStyle=orthogonalEdgeStyle;html=1;verticalAlign=bottom;endArrow=open;endSize=8;strokeColor=#ff0000;rounded=0;" edge="1" source="dkbqTGL4VmAJF5eFEC8l-55" parent="1">
          <mxGeometry relative="1" as="geometry">
            <mxPoint x="415" y="1250" as="targetPoint" />
          </mxGeometry>
        </mxCell>
        <mxCell id="dkbqTGL4VmAJF5eFEC8l-62" value="退款" style="rounded=1;whiteSpace=wrap;html=1;arcSize=40;fontColor=#000000;fillColor=#ffffc0;strokeColor=#ff0000;" vertex="1" parent="1">
          <mxGeometry x="354" y="1250" width="120" height="40" as="geometry" />
        </mxCell>
        <mxCell id="dkbqTGL4VmAJF5eFEC8l-63" value="" style="edgeStyle=orthogonalEdgeStyle;html=1;verticalAlign=bottom;endArrow=open;endSize=8;strokeColor=#ff0000;rounded=0;" edge="1" source="dkbqTGL4VmAJF5eFEC8l-62" parent="1">
          <mxGeometry relative="1" as="geometry">
            <mxPoint x="430" y="1390" as="targetPoint" />
            <Array as="points">
              <mxPoint x="414" y="1350" />
              <mxPoint x="430" y="1350" />
            </Array>
          </mxGeometry>
        </mxCell>
        <mxCell id="dkbqTGL4VmAJF5eFEC8l-64" value="接受退货" style="text;html=1;align=center;verticalAlign=middle;resizable=0;points=[];autosize=1;strokeColor=none;fillColor=none;" vertex="1" parent="1">
          <mxGeometry x="425" y="1200" width="70" height="30" as="geometry" />
        </mxCell>
        <mxCell id="dkbqTGL4VmAJF5eFEC8l-65" value="" style="ellipse;html=1;shape=endState;fillColor=#000000;strokeColor=#ff0000;" vertex="1" parent="1">
          <mxGeometry x="415" y="1390" width="30" height="30" as="geometry" />
        </mxCell>
        <mxCell id="dkbqTGL4VmAJF5eFEC8l-67" value="Buyer" style="swimlane;fontStyle=1;align=center;verticalAlign=top;childLayout=stackLayout;horizontal=1;startSize=25.366665649414063;horizontalStack=0;resizeParent=1;resizeParentMax=0;resizeLast=0;collapsible=0;marginBottom=0;labelBorderColor=none;strokeColor=#30FFAC;" vertex="1" parent="1">
          <mxGeometry x="1060" y="1016.6299999999999" width="210" height="233.36666564941407" as="geometry" />
        </mxCell>
        <mxCell id="dkbqTGL4VmAJF5eFEC8l-68" value="-username: String" style="text;strokeColor=#30FFAC;fillColor=none;align=left;verticalAlign=top;spacingLeft=4;spacingRight=4;overflow=hidden;rotatable=0;points=[[0,0.5],[1,0.5]];portConstraint=eastwest;labelBorderColor=none;" vertex="1" parent="dkbqTGL4VmAJF5eFEC8l-67">
          <mxGeometry y="25.366665649414063" width="210" height="25" as="geometry" />
        </mxCell>
        <mxCell id="dkbqTGL4VmAJF5eFEC8l-69" value="-password: String" style="text;strokeColor=#30FFAC;fillColor=none;align=left;verticalAlign=top;spacingLeft=4;spacingRight=4;overflow=hidden;rotatable=0;points=[[0,0.5],[1,0.5]];portConstraint=eastwest;labelBorderColor=none;" vertex="1" parent="dkbqTGL4VmAJF5eFEC8l-67">
          <mxGeometry y="50.36666564941406" width="210" height="25" as="geometry" />
        </mxCell>
        <mxCell id="dkbqTGL4VmAJF5eFEC8l-70" value="-email: String" style="text;strokeColor=#30FFAC;fillColor=none;align=left;verticalAlign=top;spacingLeft=4;spacingRight=4;overflow=hidden;rotatable=0;points=[[0,0.5],[1,0.5]];portConstraint=eastwest;labelBorderColor=none;" vertex="1" parent="dkbqTGL4VmAJF5eFEC8l-67">
          <mxGeometry y="75.36666564941406" width="210" height="25" as="geometry" />
        </mxCell>
        <mxCell id="dkbqTGL4VmAJF5eFEC8l-71" value="-address: String" style="text;strokeColor=#30FFAC;fillColor=none;align=left;verticalAlign=top;spacingLeft=4;spacingRight=4;overflow=hidden;rotatable=0;points=[[0,0.5],[1,0.5]];portConstraint=eastwest;labelBorderColor=none;" vertex="1" parent="dkbqTGL4VmAJF5eFEC8l-67">
          <mxGeometry y="100.36666564941406" width="210" height="25" as="geometry" />
        </mxCell>
        <mxCell id="dkbqTGL4VmAJF5eFEC8l-72" style="line;strokeWidth=1;fillColor=none;align=left;verticalAlign=middle;spacingTop=-1;spacingLeft=3;spacingRight=3;rotatable=0;labelPosition=right;points=[];portConstraint=eastwest;strokeColor=#30FFAC;labelBorderColor=none;" vertex="1" parent="dkbqTGL4VmAJF5eFEC8l-67">
          <mxGeometry y="125.36666564941406" width="210" height="8" as="geometry" />
        </mxCell>
        <mxCell id="dkbqTGL4VmAJF5eFEC8l-75" value="+purchaseProduct() : : void" style="text;strokeColor=#30FFAC;fillColor=none;align=left;verticalAlign=top;spacingLeft=4;spacingRight=4;overflow=hidden;rotatable=0;points=[[0,0.5],[1,0.5]];portConstraint=eastwest;labelBorderColor=none;" vertex="1" parent="dkbqTGL4VmAJF5eFEC8l-67">
          <mxGeometry y="133.36666564941407" width="210" height="25" as="geometry" />
        </mxCell>
        <mxCell id="dkbqTGL4VmAJF5eFEC8l-73" value="+viewProducts() : : void" style="text;strokeColor=#30FFAC;fillColor=none;align=left;verticalAlign=top;spacingLeft=4;spacingRight=4;overflow=hidden;rotatable=0;points=[[0,0.5],[1,0.5]];portConstraint=eastwest;labelBorderColor=none;" vertex="1" parent="dkbqTGL4VmAJF5eFEC8l-67">
          <mxGeometry y="158.36666564941407" width="210" height="25" as="geometry" />
        </mxCell>
        <mxCell id="dkbqTGL4VmAJF5eFEC8l-74" value="+manageOrders() : : void" style="text;strokeColor=#30FFAC;fillColor=none;align=left;verticalAlign=top;spacingLeft=4;spacingRight=4;overflow=hidden;rotatable=0;points=[[0,0.5],[1,0.5]];portConstraint=eastwest;labelBorderColor=none;" vertex="1" parent="dkbqTGL4VmAJF5eFEC8l-67">
          <mxGeometry y="183.36666564941407" width="210" height="25" as="geometry" />
        </mxCell>
        <mxCell id="dkbqTGL4VmAJF5eFEC8l-76" value="+reviewProduct() : : void" style="text;strokeColor=#30FFAC;fillColor=none;align=left;verticalAlign=top;spacingLeft=4;spacingRight=4;overflow=hidden;rotatable=0;points=[[0,0.5],[1,0.5]];portConstraint=eastwest;labelBorderColor=none;" vertex="1" parent="dkbqTGL4VmAJF5eFEC8l-67">
          <mxGeometry y="208.36666564941407" width="210" height="25" as="geometry" />
        </mxCell>
        <mxCell id="dkbqTGL4VmAJF5eFEC8l-78" value="Admin" style="swimlane;fontStyle=1;align=center;verticalAlign=top;childLayout=stackLayout;horizontal=1;startSize=27.166666666666668;horizontalStack=0;resizeParent=1;resizeParentMax=0;resizeLast=0;collapsible=0;marginBottom=0;labelBorderColor=none;strokeColor=#30FFAC;" vertex="1" parent="1">
          <mxGeometry x="650" y="1059.83" width="208" height="170.16666666666669" as="geometry" />
        </mxCell>
        <mxCell id="dkbqTGL4VmAJF5eFEC8l-79" value="-username: String" style="text;strokeColor=#30FFAC;fillColor=none;align=left;verticalAlign=top;spacingLeft=4;spacingRight=4;overflow=hidden;rotatable=0;points=[[0,0.5],[1,0.5]];portConstraint=eastwest;labelBorderColor=none;" vertex="1" parent="dkbqTGL4VmAJF5eFEC8l-78">
          <mxGeometry y="27.166666666666668" width="208" height="27" as="geometry" />
        </mxCell>
        <mxCell id="dkbqTGL4VmAJF5eFEC8l-80" value="-password: String" style="text;strokeColor=#30FFAC;fillColor=none;align=left;verticalAlign=top;spacingLeft=4;spacingRight=4;overflow=hidden;rotatable=0;points=[[0,0.5],[1,0.5]];portConstraint=eastwest;labelBorderColor=none;" vertex="1" parent="dkbqTGL4VmAJF5eFEC8l-78">
          <mxGeometry y="54.16666666666667" width="208" height="27" as="geometry" />
        </mxCell>
        <mxCell id="dkbqTGL4VmAJF5eFEC8l-81" value="-email: String" style="text;strokeColor=#30FFAC;fillColor=none;align=left;verticalAlign=top;spacingLeft=4;spacingRight=4;overflow=hidden;rotatable=0;points=[[0,0.5],[1,0.5]];portConstraint=eastwest;labelBorderColor=none;" vertex="1" parent="dkbqTGL4VmAJF5eFEC8l-78">
          <mxGeometry y="81.16666666666667" width="208" height="27" as="geometry" />
        </mxCell>
        <mxCell id="dkbqTGL4VmAJF5eFEC8l-82" style="line;strokeWidth=1;fillColor=none;align=left;verticalAlign=middle;spacingTop=-1;spacingLeft=3;spacingRight=3;rotatable=0;labelPosition=right;points=[];portConstraint=eastwest;strokeColor=#30FFAC;labelBorderColor=none;" vertex="1" parent="dkbqTGL4VmAJF5eFEC8l-78">
          <mxGeometry y="108.16666666666667" width="208" height="8" as="geometry" />
        </mxCell>
        <mxCell id="dkbqTGL4VmAJF5eFEC8l-83" value="+manageProducts() : : void" style="text;strokeColor=#30FFAC;fillColor=none;align=left;verticalAlign=top;spacingLeft=4;spacingRight=4;overflow=hidden;rotatable=0;points=[[0,0.5],[1,0.5]];portConstraint=eastwest;labelBorderColor=none;" vertex="1" parent="dkbqTGL4VmAJF5eFEC8l-78">
          <mxGeometry y="116.16666666666667" width="208" height="27" as="geometry" />
        </mxCell>
        <mxCell id="dkbqTGL4VmAJF5eFEC8l-84" value="+manageOrders() : : void" style="text;strokeColor=#30FFAC;fillColor=none;align=left;verticalAlign=top;spacingLeft=4;spacingRight=4;overflow=hidden;rotatable=0;points=[[0,0.5],[1,0.5]];portConstraint=eastwest;labelBorderColor=none;" vertex="1" parent="dkbqTGL4VmAJF5eFEC8l-78">
          <mxGeometry y="143.16666666666669" width="208" height="27" as="geometry" />
        </mxCell>
        <mxCell id="dkbqTGL4VmAJF5eFEC8l-85" value="Product" style="swimlane;fontStyle=1;align=center;verticalAlign=top;childLayout=stackLayout;horizontal=1;startSize=25.666666666666668;horizontalStack=0;resizeParent=1;resizeParentMax=0;resizeLast=0;collapsible=0;marginBottom=0;labelBorderColor=none;strokeColor=#30FFAC;" vertex="1" parent="1">
          <mxGeometry x="810" y="1670" width="207" height="241.66666666666669" as="geometry" />
        </mxCell>
        <mxCell id="dkbqTGL4VmAJF5eFEC8l-86" value="-productId: String" style="text;strokeColor=#30FFAC;fillColor=none;align=left;verticalAlign=top;spacingLeft=4;spacingRight=4;overflow=hidden;rotatable=0;points=[[0,0.5],[1,0.5]];portConstraint=eastwest;labelBorderColor=none;" vertex="1" parent="dkbqTGL4VmAJF5eFEC8l-85">
          <mxGeometry y="25.666666666666668" width="207" height="26" as="geometry" />
        </mxCell>
        <mxCell id="dkbqTGL4VmAJF5eFEC8l-87" value="-name: String" style="text;strokeColor=#30FFAC;fillColor=none;align=left;verticalAlign=top;spacingLeft=4;spacingRight=4;overflow=hidden;rotatable=0;points=[[0,0.5],[1,0.5]];portConstraint=eastwest;labelBorderColor=none;" vertex="1" parent="dkbqTGL4VmAJF5eFEC8l-85">
          <mxGeometry y="51.66666666666667" width="207" height="26" as="geometry" />
        </mxCell>
        <mxCell id="dkbqTGL4VmAJF5eFEC8l-88" value="-description: String" style="text;strokeColor=#30FFAC;fillColor=none;align=left;verticalAlign=top;spacingLeft=4;spacingRight=4;overflow=hidden;rotatable=0;points=[[0,0.5],[1,0.5]];portConstraint=eastwest;labelBorderColor=none;" vertex="1" parent="dkbqTGL4VmAJF5eFEC8l-85">
          <mxGeometry y="77.66666666666667" width="207" height="26" as="geometry" />
        </mxCell>
        <mxCell id="dkbqTGL4VmAJF5eFEC8l-89" value="-price: double" style="text;strokeColor=#30FFAC;fillColor=none;align=left;verticalAlign=top;spacingLeft=4;spacingRight=4;overflow=hidden;rotatable=0;points=[[0,0.5],[1,0.5]];portConstraint=eastwest;labelBorderColor=none;" vertex="1" parent="dkbqTGL4VmAJF5eFEC8l-85">
          <mxGeometry y="103.66666666666667" width="207" height="26" as="geometry" />
        </mxCell>
        <mxCell id="dkbqTGL4VmAJF5eFEC8l-90" style="line;strokeWidth=1;fillColor=none;align=left;verticalAlign=middle;spacingTop=-1;spacingLeft=3;spacingRight=3;rotatable=0;labelPosition=right;points=[];portConstraint=eastwest;strokeColor=#30FFAC;labelBorderColor=none;" vertex="1" parent="dkbqTGL4VmAJF5eFEC8l-85">
          <mxGeometry y="129.66666666666669" width="207" height="8" as="geometry" />
        </mxCell>
        <mxCell id="dkbqTGL4VmAJF5eFEC8l-91" value="+getProductId() : : String" style="text;strokeColor=#30FFAC;fillColor=none;align=left;verticalAlign=top;spacingLeft=4;spacingRight=4;overflow=hidden;rotatable=0;points=[[0,0.5],[1,0.5]];portConstraint=eastwest;labelBorderColor=none;" vertex="1" parent="dkbqTGL4VmAJF5eFEC8l-85">
          <mxGeometry y="137.66666666666669" width="207" height="26" as="geometry" />
        </mxCell>
        <mxCell id="dkbqTGL4VmAJF5eFEC8l-92" value="+getName() : : String" style="text;strokeColor=#30FFAC;fillColor=none;align=left;verticalAlign=top;spacingLeft=4;spacingRight=4;overflow=hidden;rotatable=0;points=[[0,0.5],[1,0.5]];portConstraint=eastwest;labelBorderColor=none;" vertex="1" parent="dkbqTGL4VmAJF5eFEC8l-85">
          <mxGeometry y="163.66666666666669" width="207" height="26" as="geometry" />
        </mxCell>
        <mxCell id="dkbqTGL4VmAJF5eFEC8l-93" value="+getDescription() : : String" style="text;strokeColor=#30FFAC;fillColor=none;align=left;verticalAlign=top;spacingLeft=4;spacingRight=4;overflow=hidden;rotatable=0;points=[[0,0.5],[1,0.5]];portConstraint=eastwest;labelBorderColor=none;" vertex="1" parent="dkbqTGL4VmAJF5eFEC8l-85">
          <mxGeometry y="189.66666666666669" width="207" height="26" as="geometry" />
        </mxCell>
        <mxCell id="dkbqTGL4VmAJF5eFEC8l-94" value="+getPrice() : : double" style="text;strokeColor=#30FFAC;fillColor=none;align=left;verticalAlign=top;spacingLeft=4;spacingRight=4;overflow=hidden;rotatable=0;points=[[0,0.5],[1,0.5]];portConstraint=eastwest;labelBorderColor=none;" vertex="1" parent="dkbqTGL4VmAJF5eFEC8l-85">
          <mxGeometry y="215.66666666666669" width="207" height="26" as="geometry" />
        </mxCell>
        <mxCell id="dkbqTGL4VmAJF5eFEC8l-95" value="Order" style="swimlane;fontStyle=1;align=center;verticalAlign=top;childLayout=stackLayout;horizontal=1;startSize=24.595238821847097;horizontalStack=0;resizeParent=1;resizeParentMax=0;resizeLast=0;collapsible=0;marginBottom=0;labelBorderColor=none;strokeColor=#30FFAC;" vertex="1" parent="1">
          <mxGeometry x="850" y="1280" width="252" height="357.5952388218471" as="geometry" />
        </mxCell>
        <mxCell id="dkbqTGL4VmAJF5eFEC8l-96" value="-orderId: String" style="text;strokeColor=#30FFAC;fillColor=none;align=left;verticalAlign=top;spacingLeft=4;spacingRight=4;overflow=hidden;rotatable=0;points=[[0,0.5],[1,0.5]];portConstraint=eastwest;labelBorderColor=none;" vertex="1" parent="dkbqTGL4VmAJF5eFEC8l-95">
          <mxGeometry y="24.595238821847097" width="252" height="25" as="geometry" />
        </mxCell>
        <mxCell id="dkbqTGL4VmAJF5eFEC8l-97" value="-buyer: Buyer" style="text;strokeColor=#30FFAC;fillColor=none;align=left;verticalAlign=top;spacingLeft=4;spacingRight=4;overflow=hidden;rotatable=0;points=[[0,0.5],[1,0.5]];portConstraint=eastwest;labelBorderColor=none;" vertex="1" parent="dkbqTGL4VmAJF5eFEC8l-95">
          <mxGeometry y="49.5952388218471" width="252" height="25" as="geometry" />
        </mxCell>
        <mxCell id="dkbqTGL4VmAJF5eFEC8l-98" value="-product: Product" style="text;strokeColor=#30FFAC;fillColor=none;align=left;verticalAlign=top;spacingLeft=4;spacingRight=4;overflow=hidden;rotatable=0;points=[[0,0.5],[1,0.5]];portConstraint=eastwest;labelBorderColor=none;" vertex="1" parent="dkbqTGL4VmAJF5eFEC8l-95">
          <mxGeometry y="74.59523882184709" width="252" height="25" as="geometry" />
        </mxCell>
        <mxCell id="dkbqTGL4VmAJF5eFEC8l-99" value="-quantity: int" style="text;strokeColor=#30FFAC;fillColor=none;align=left;verticalAlign=top;spacingLeft=4;spacingRight=4;overflow=hidden;rotatable=0;points=[[0,0.5],[1,0.5]];portConstraint=eastwest;labelBorderColor=none;" vertex="1" parent="dkbqTGL4VmAJF5eFEC8l-95">
          <mxGeometry y="99.59523882184709" width="252" height="25" as="geometry" />
        </mxCell>
        <mxCell id="dkbqTGL4VmAJF5eFEC8l-100" value="-orderDate: Date" style="text;strokeColor=#30FFAC;fillColor=none;align=left;verticalAlign=top;spacingLeft=4;spacingRight=4;overflow=hidden;rotatable=0;points=[[0,0.5],[1,0.5]];portConstraint=eastwest;labelBorderColor=none;" vertex="1" parent="dkbqTGL4VmAJF5eFEC8l-95">
          <mxGeometry y="124.59523882184709" width="252" height="25" as="geometry" />
        </mxCell>
        <mxCell id="dkbqTGL4VmAJF5eFEC8l-101" value="-status: String" style="text;strokeColor=#30FFAC;fillColor=none;align=left;verticalAlign=top;spacingLeft=4;spacingRight=4;overflow=hidden;rotatable=0;points=[[0,0.5],[1,0.5]];portConstraint=eastwest;labelBorderColor=none;" vertex="1" parent="dkbqTGL4VmAJF5eFEC8l-95">
          <mxGeometry y="149.5952388218471" width="252" height="25" as="geometry" />
        </mxCell>
        <mxCell id="dkbqTGL4VmAJF5eFEC8l-102" style="line;strokeWidth=1;fillColor=none;align=left;verticalAlign=middle;spacingTop=-1;spacingLeft=3;spacingRight=3;rotatable=0;labelPosition=right;points=[];portConstraint=eastwest;strokeColor=#30FFAC;labelBorderColor=none;" vertex="1" parent="dkbqTGL4VmAJF5eFEC8l-95">
          <mxGeometry y="174.5952388218471" width="252" height="8" as="geometry" />
        </mxCell>
        <mxCell id="dkbqTGL4VmAJF5eFEC8l-103" value="+getOrderId() : : String" style="text;strokeColor=#30FFAC;fillColor=none;align=left;verticalAlign=top;spacingLeft=4;spacingRight=4;overflow=hidden;rotatable=0;points=[[0,0.5],[1,0.5]];portConstraint=eastwest;labelBorderColor=none;" vertex="1" parent="dkbqTGL4VmAJF5eFEC8l-95">
          <mxGeometry y="182.5952388218471" width="252" height="25" as="geometry" />
        </mxCell>
        <mxCell id="dkbqTGL4VmAJF5eFEC8l-104" value="+getBuyer() : : Buyer" style="text;strokeColor=#30FFAC;fillColor=none;align=left;verticalAlign=top;spacingLeft=4;spacingRight=4;overflow=hidden;rotatable=0;points=[[0,0.5],[1,0.5]];portConstraint=eastwest;labelBorderColor=none;" vertex="1" parent="dkbqTGL4VmAJF5eFEC8l-95">
          <mxGeometry y="207.5952388218471" width="252" height="25" as="geometry" />
        </mxCell>
        <mxCell id="dkbqTGL4VmAJF5eFEC8l-105" value="+getProduct() : : Product" style="text;strokeColor=#30FFAC;fillColor=none;align=left;verticalAlign=top;spacingLeft=4;spacingRight=4;overflow=hidden;rotatable=0;points=[[0,0.5],[1,0.5]];portConstraint=eastwest;labelBorderColor=none;" vertex="1" parent="dkbqTGL4VmAJF5eFEC8l-95">
          <mxGeometry y="232.5952388218471" width="252" height="25" as="geometry" />
        </mxCell>
        <mxCell id="dkbqTGL4VmAJF5eFEC8l-106" value="+getQuantity() : : int" style="text;strokeColor=#30FFAC;fillColor=none;align=left;verticalAlign=top;spacingLeft=4;spacingRight=4;overflow=hidden;rotatable=0;points=[[0,0.5],[1,0.5]];portConstraint=eastwest;labelBorderColor=none;" vertex="1" parent="dkbqTGL4VmAJF5eFEC8l-95">
          <mxGeometry y="257.5952388218471" width="252" height="25" as="geometry" />
        </mxCell>
        <mxCell id="dkbqTGL4VmAJF5eFEC8l-107" value="+getOrderDate() : : Date" style="text;strokeColor=#30FFAC;fillColor=none;align=left;verticalAlign=top;spacingLeft=4;spacingRight=4;overflow=hidden;rotatable=0;points=[[0,0.5],[1,0.5]];portConstraint=eastwest;labelBorderColor=none;" vertex="1" parent="dkbqTGL4VmAJF5eFEC8l-95">
          <mxGeometry y="282.5952388218471" width="252" height="25" as="geometry" />
        </mxCell>
        <mxCell id="dkbqTGL4VmAJF5eFEC8l-108" value="+getStatus() : : String" style="text;strokeColor=#30FFAC;fillColor=none;align=left;verticalAlign=top;spacingLeft=4;spacingRight=4;overflow=hidden;rotatable=0;points=[[0,0.5],[1,0.5]];portConstraint=eastwest;labelBorderColor=none;" vertex="1" parent="dkbqTGL4VmAJF5eFEC8l-95">
          <mxGeometry y="307.5952388218471" width="252" height="25" as="geometry" />
        </mxCell>
        <mxCell id="dkbqTGL4VmAJF5eFEC8l-109" value="+setStatus(status: String) : : void" style="text;strokeColor=#30FFAC;fillColor=none;align=left;verticalAlign=top;spacingLeft=4;spacingRight=4;overflow=hidden;rotatable=0;points=[[0,0.5],[1,0.5]];portConstraint=eastwest;labelBorderColor=none;" vertex="1" parent="dkbqTGL4VmAJF5eFEC8l-95">
          <mxGeometry y="332.5952388218471" width="252" height="25" as="geometry" />
        </mxCell>
        <mxCell id="dkbqTGL4VmAJF5eFEC8l-110" value="Review" style="swimlane;fontStyle=1;align=center;verticalAlign=top;childLayout=stackLayout;horizontal=1;startSize=25.121213045987215;horizontalStack=0;resizeParent=1;resizeParentMax=0;resizeLast=0;collapsible=0;marginBottom=0;labelBorderColor=none;strokeColor=#30FFAC;" vertex="1" parent="1">
          <mxGeometry x="1143" y="1280" width="195" height="283.12121304598725" as="geometry" />
        </mxCell>
        <mxCell id="dkbqTGL4VmAJF5eFEC8l-111" value="-reviewId: String" style="text;strokeColor=#30FFAC;fillColor=none;align=left;verticalAlign=top;spacingLeft=4;spacingRight=4;overflow=hidden;rotatable=0;points=[[0,0.5],[1,0.5]];portConstraint=eastwest;labelBorderColor=none;" vertex="1" parent="dkbqTGL4VmAJF5eFEC8l-110">
          <mxGeometry y="25.121213045987215" width="195" height="25" as="geometry" />
        </mxCell>
        <mxCell id="dkbqTGL4VmAJF5eFEC8l-112" value="-buyer: Buyer" style="text;strokeColor=#30FFAC;fillColor=none;align=left;verticalAlign=top;spacingLeft=4;spacingRight=4;overflow=hidden;rotatable=0;points=[[0,0.5],[1,0.5]];portConstraint=eastwest;labelBorderColor=none;" vertex="1" parent="dkbqTGL4VmAJF5eFEC8l-110">
          <mxGeometry y="50.12121304598722" width="195" height="25" as="geometry" />
        </mxCell>
        <mxCell id="dkbqTGL4VmAJF5eFEC8l-113" value="-product: Product" style="text;strokeColor=#30FFAC;fillColor=none;align=left;verticalAlign=top;spacingLeft=4;spacingRight=4;overflow=hidden;rotatable=0;points=[[0,0.5],[1,0.5]];portConstraint=eastwest;labelBorderColor=none;" vertex="1" parent="dkbqTGL4VmAJF5eFEC8l-110">
          <mxGeometry y="75.12121304598722" width="195" height="25" as="geometry" />
        </mxCell>
        <mxCell id="dkbqTGL4VmAJF5eFEC8l-114" value="-rating: int" style="text;strokeColor=#30FFAC;fillColor=none;align=left;verticalAlign=top;spacingLeft=4;spacingRight=4;overflow=hidden;rotatable=0;points=[[0,0.5],[1,0.5]];portConstraint=eastwest;labelBorderColor=none;" vertex="1" parent="dkbqTGL4VmAJF5eFEC8l-110">
          <mxGeometry y="100.12121304598722" width="195" height="25" as="geometry" />
        </mxCell>
        <mxCell id="dkbqTGL4VmAJF5eFEC8l-115" value="-comment: String" style="text;strokeColor=#30FFAC;fillColor=none;align=left;verticalAlign=top;spacingLeft=4;spacingRight=4;overflow=hidden;rotatable=0;points=[[0,0.5],[1,0.5]];portConstraint=eastwest;labelBorderColor=none;" vertex="1" parent="dkbqTGL4VmAJF5eFEC8l-110">
          <mxGeometry y="125.12121304598722" width="195" height="25" as="geometry" />
        </mxCell>
        <mxCell id="dkbqTGL4VmAJF5eFEC8l-116" style="line;strokeWidth=1;fillColor=none;align=left;verticalAlign=middle;spacingTop=-1;spacingLeft=3;spacingRight=3;rotatable=0;labelPosition=right;points=[];portConstraint=eastwest;strokeColor=#30FFAC;labelBorderColor=none;" vertex="1" parent="dkbqTGL4VmAJF5eFEC8l-110">
          <mxGeometry y="150.12121304598722" width="195" height="8" as="geometry" />
        </mxCell>
        <mxCell id="dkbqTGL4VmAJF5eFEC8l-117" value="+getReviewId() : : String" style="text;strokeColor=#30FFAC;fillColor=none;align=left;verticalAlign=top;spacingLeft=4;spacingRight=4;overflow=hidden;rotatable=0;points=[[0,0.5],[1,0.5]];portConstraint=eastwest;labelBorderColor=none;" vertex="1" parent="dkbqTGL4VmAJF5eFEC8l-110">
          <mxGeometry y="158.12121304598722" width="195" height="25" as="geometry" />
        </mxCell>
        <mxCell id="dkbqTGL4VmAJF5eFEC8l-118" value="+getBuyer() : : Buyer" style="text;strokeColor=#30FFAC;fillColor=none;align=left;verticalAlign=top;spacingLeft=4;spacingRight=4;overflow=hidden;rotatable=0;points=[[0,0.5],[1,0.5]];portConstraint=eastwest;labelBorderColor=none;" vertex="1" parent="dkbqTGL4VmAJF5eFEC8l-110">
          <mxGeometry y="183.12121304598722" width="195" height="25" as="geometry" />
        </mxCell>
        <mxCell id="dkbqTGL4VmAJF5eFEC8l-119" value="+getProduct() : : Product" style="text;strokeColor=#30FFAC;fillColor=none;align=left;verticalAlign=top;spacingLeft=4;spacingRight=4;overflow=hidden;rotatable=0;points=[[0,0.5],[1,0.5]];portConstraint=eastwest;labelBorderColor=none;" vertex="1" parent="dkbqTGL4VmAJF5eFEC8l-110">
          <mxGeometry y="208.12121304598722" width="195" height="25" as="geometry" />
        </mxCell>
        <mxCell id="dkbqTGL4VmAJF5eFEC8l-120" value="+getRating() : : int" style="text;strokeColor=#30FFAC;fillColor=none;align=left;verticalAlign=top;spacingLeft=4;spacingRight=4;overflow=hidden;rotatable=0;points=[[0,0.5],[1,0.5]];portConstraint=eastwest;labelBorderColor=none;" vertex="1" parent="dkbqTGL4VmAJF5eFEC8l-110">
          <mxGeometry y="233.12121304598722" width="195" height="25" as="geometry" />
        </mxCell>
        <mxCell id="dkbqTGL4VmAJF5eFEC8l-121" value="+getComment() : : String" style="text;strokeColor=#30FFAC;fillColor=none;align=left;verticalAlign=top;spacingLeft=4;spacingRight=4;overflow=hidden;rotatable=0;points=[[0,0.5],[1,0.5]];portConstraint=eastwest;labelBorderColor=none;" vertex="1" parent="dkbqTGL4VmAJF5eFEC8l-110">
          <mxGeometry y="258.12121304598725" width="195" height="25" as="geometry" />
        </mxCell>
        <mxCell id="dkbqTGL4VmAJF5eFEC8l-122" value="创建" style="curved=1;startArrow=none;endArrow=open;endSize=12;exitX=0;exitY=0.98;entryX=0.84;entryY=0;rounded=0;labelBorderColor=none;strokeColor=#30FFAC;" edge="1" parent="1" source="dkbqTGL4VmAJF5eFEC8l-67" target="dkbqTGL4VmAJF5eFEC8l-95">
          <mxGeometry relative="1" as="geometry">
            <Array as="points">
              <mxPoint x="1015" y="1256" />
            </Array>
          </mxGeometry>
        </mxCell>
        <mxCell id="dkbqTGL4VmAJF5eFEC8l-123" value="1" style="edgeLabel;resizable=0;labelBackgroundColor=none;fontSize=12;align=right;verticalAlign=top;labelBorderColor=none;strokeColor=#30FFAC;" vertex="1" parent="dkbqTGL4VmAJF5eFEC8l-122">
          <mxGeometry x="-1" relative="1" as="geometry" />
        </mxCell>
        <mxCell id="dkbqTGL4VmAJF5eFEC8l-124" value="*" style="edgeLabel;resizable=0;labelBackgroundColor=none;fontSize=12;align=left;verticalAlign=bottom;labelBorderColor=none;strokeColor=#30FFAC;" vertex="1" parent="dkbqTGL4VmAJF5eFEC8l-122">
          <mxGeometry x="1" relative="1" as="geometry" />
        </mxCell>
        <mxCell id="dkbqTGL4VmAJF5eFEC8l-125" value="编写" style="curved=1;startArrow=none;endArrow=open;endSize=12;exitX=0.33;exitY=1;entryX=0.23;entryY=0;rounded=0;labelBorderColor=none;strokeColor=#30FFAC;" edge="1" parent="1" source="dkbqTGL4VmAJF5eFEC8l-67" target="dkbqTGL4VmAJF5eFEC8l-110">
          <mxGeometry relative="1" as="geometry">
            <Array as="points">
              <mxPoint x="1106" y="1256" />
            </Array>
          </mxGeometry>
        </mxCell>
        <mxCell id="dkbqTGL4VmAJF5eFEC8l-126" value="1" style="edgeLabel;resizable=0;labelBackgroundColor=none;fontSize=12;align=right;verticalAlign=top;labelBorderColor=none;strokeColor=#30FFAC;" vertex="1" parent="dkbqTGL4VmAJF5eFEC8l-125">
          <mxGeometry x="-1" relative="1" as="geometry" />
        </mxCell>
        <mxCell id="dkbqTGL4VmAJF5eFEC8l-127" value="*" style="edgeLabel;resizable=0;labelBackgroundColor=none;fontSize=12;align=left;verticalAlign=bottom;labelBorderColor=none;strokeColor=#30FFAC;" vertex="1" parent="dkbqTGL4VmAJF5eFEC8l-125">
          <mxGeometry x="1" relative="1" as="geometry" />
        </mxCell>
        <mxCell id="dkbqTGL4VmAJF5eFEC8l-128" value="管理" style="curved=1;startArrow=none;endArrow=open;endSize=12;exitX=0.44;exitY=1;entryX=0;entryY=0.15;rounded=0;labelBorderColor=none;strokeColor=#30FFAC;" edge="1" parent="1" source="dkbqTGL4VmAJF5eFEC8l-78" target="dkbqTGL4VmAJF5eFEC8l-85">
          <mxGeometry relative="1" as="geometry">
            <Array as="points">
              <mxPoint x="719" y="1256" />
              <mxPoint x="719" y="1677" />
            </Array>
          </mxGeometry>
        </mxCell>
        <mxCell id="dkbqTGL4VmAJF5eFEC8l-129" value="1" style="edgeLabel;resizable=0;labelBackgroundColor=none;fontSize=12;align=right;verticalAlign=top;labelBorderColor=none;strokeColor=#30FFAC;" vertex="1" parent="dkbqTGL4VmAJF5eFEC8l-128">
          <mxGeometry x="-1" relative="1" as="geometry" />
        </mxCell>
        <mxCell id="dkbqTGL4VmAJF5eFEC8l-130" value="*" style="edgeLabel;resizable=0;labelBackgroundColor=none;fontSize=12;align=left;verticalAlign=bottom;labelBorderColor=none;strokeColor=#30FFAC;" vertex="1" parent="dkbqTGL4VmAJF5eFEC8l-128">
          <mxGeometry x="1" relative="1" as="geometry" />
        </mxCell>
        <mxCell id="dkbqTGL4VmAJF5eFEC8l-131" value="管理" style="curved=1;startArrow=none;endArrow=open;endSize=12;exitX=0.74;exitY=1;entryX=0.26;entryY=0;rounded=0;labelBorderColor=none;strokeColor=#30FFAC;" edge="1" parent="1" source="dkbqTGL4VmAJF5eFEC8l-78" target="dkbqTGL4VmAJF5eFEC8l-95">
          <mxGeometry relative="1" as="geometry">
            <Array as="points">
              <mxPoint x="840" y="1256" />
            </Array>
          </mxGeometry>
        </mxCell>
        <mxCell id="dkbqTGL4VmAJF5eFEC8l-132" value="1" style="edgeLabel;resizable=0;labelBackgroundColor=none;fontSize=12;align=right;verticalAlign=top;labelBorderColor=none;strokeColor=#30FFAC;" vertex="1" parent="dkbqTGL4VmAJF5eFEC8l-131">
          <mxGeometry x="-1" relative="1" as="geometry" />
        </mxCell>
        <mxCell id="dkbqTGL4VmAJF5eFEC8l-133" value="*" style="edgeLabel;resizable=0;labelBackgroundColor=none;fontSize=12;align=left;verticalAlign=bottom;labelBorderColor=none;strokeColor=#30FFAC;" vertex="1" parent="dkbqTGL4VmAJF5eFEC8l-131">
          <mxGeometry x="1" relative="1" as="geometry" />
        </mxCell>
        <mxCell id="dkbqTGL4VmAJF5eFEC8l-134" value="包括" style="curved=1;startArrow=none;endArrow=open;endSize=12;exitX=0.5;exitY=1;entryX=0.5;entryY=0;rounded=0;labelBorderColor=none;strokeColor=#30FFAC;" edge="1" parent="1" source="dkbqTGL4VmAJF5eFEC8l-95" target="dkbqTGL4VmAJF5eFEC8l-85">
          <mxGeometry x="0.0019" relative="1" as="geometry">
            <Array as="points" />
            <mxPoint as="offset" />
          </mxGeometry>
        </mxCell>
        <mxCell id="dkbqTGL4VmAJF5eFEC8l-135" value="1" style="edgeLabel;resizable=0;labelBackgroundColor=none;fontSize=12;align=right;verticalAlign=top;labelBorderColor=none;strokeColor=#30FFAC;" vertex="1" parent="dkbqTGL4VmAJF5eFEC8l-134">
          <mxGeometry x="-1" relative="1" as="geometry" />
        </mxCell>
        <mxCell id="dkbqTGL4VmAJF5eFEC8l-136" value="1" style="edgeLabel;resizable=0;labelBackgroundColor=none;fontSize=12;align=left;verticalAlign=bottom;labelBorderColor=none;strokeColor=#30FFAC;" vertex="1" parent="dkbqTGL4VmAJF5eFEC8l-134">
          <mxGeometry x="1" relative="1" as="geometry" />
        </mxCell>
        <mxCell id="dkbqTGL4VmAJF5eFEC8l-137" value="评论" style="curved=1;startArrow=none;endArrow=open;endSize=12;exitX=0.5;exitY=1;entryX=1;entryY=0.26;rounded=0;labelBorderColor=none;strokeColor=#30FFAC;" edge="1" parent="1" source="dkbqTGL4VmAJF5eFEC8l-110" target="dkbqTGL4VmAJF5eFEC8l-85">
          <mxGeometry x="0.0013" relative="1" as="geometry">
            <Array as="points">
              <mxPoint x="1184" y="1677" />
            </Array>
            <mxPoint as="offset" />
          </mxGeometry>
        </mxCell>
        <mxCell id="dkbqTGL4VmAJF5eFEC8l-138" value="1" style="edgeLabel;resizable=0;labelBackgroundColor=none;fontSize=12;align=right;verticalAlign=top;labelBorderColor=none;strokeColor=#30FFAC;" vertex="1" parent="dkbqTGL4VmAJF5eFEC8l-137">
          <mxGeometry x="-1" relative="1" as="geometry" />
        </mxCell>
        <mxCell id="dkbqTGL4VmAJF5eFEC8l-139" value="1" style="edgeLabel;resizable=0;labelBackgroundColor=none;fontSize=12;align=left;verticalAlign=bottom;labelBorderColor=none;strokeColor=#30FFAC;" vertex="1" parent="dkbqTGL4VmAJF5eFEC8l-137">
          <mxGeometry x="1" relative="1" as="geometry" />
        </mxCell>
        <mxCell id="dkbqTGL4VmAJF5eFEC8l-140" value="写者" style="curved=1;startArrow=none;endArrow=open;endSize=12;exitX=0.64;exitY=0;entryX=0.78;entryY=1;rounded=0;labelBorderColor=none;strokeColor=#30FFAC;" edge="1" parent="1" source="dkbqTGL4VmAJF5eFEC8l-110" target="dkbqTGL4VmAJF5eFEC8l-67">
          <mxGeometry relative="1" as="geometry">
            <Array as="points">
              <mxPoint x="1224" y="1256" />
            </Array>
          </mxGeometry>
        </mxCell>
        <mxCell id="dkbqTGL4VmAJF5eFEC8l-141" value="1" style="edgeLabel;resizable=0;labelBackgroundColor=none;fontSize=12;align=right;verticalAlign=bottom;labelBorderColor=none;strokeColor=#30FFAC;" vertex="1" parent="dkbqTGL4VmAJF5eFEC8l-140">
          <mxGeometry x="-1" relative="1" as="geometry" />
        </mxCell>
        <mxCell id="dkbqTGL4VmAJF5eFEC8l-142" value="1" style="edgeLabel;resizable=0;labelBackgroundColor=none;fontSize=12;align=left;verticalAlign=top;labelBorderColor=none;strokeColor=#30FFAC;" vertex="1" parent="dkbqTGL4VmAJF5eFEC8l-140">
          <mxGeometry x="1" relative="1" as="geometry" />
        </mxCell>
        <mxCell id="dkbqTGL4VmAJF5eFEC8l-144" value="Classname" style="swimlane;fontStyle=1;align=center;verticalAlign=top;childLayout=stackLayout;horizontal=1;startSize=26;horizontalStack=0;resizeParent=1;resizeParentMax=0;resizeLast=0;collapsible=1;marginBottom=0;whiteSpace=wrap;html=1;" vertex="1" parent="1">
          <mxGeometry x="1540" y="860" width="160" height="86" as="geometry" />
        </mxCell>
        <mxCell id="dkbqTGL4VmAJF5eFEC8l-145" value="+ field: type" style="text;strokeColor=none;fillColor=none;align=left;verticalAlign=top;spacingLeft=4;spacingRight=4;overflow=hidden;rotatable=0;points=[[0,0.5],[1,0.5]];portConstraint=eastwest;whiteSpace=wrap;html=1;" vertex="1" parent="dkbqTGL4VmAJF5eFEC8l-144">
          <mxGeometry y="26" width="160" height="26" as="geometry" />
        </mxCell>
        <mxCell id="dkbqTGL4VmAJF5eFEC8l-146" value="" style="line;strokeWidth=1;fillColor=none;align=left;verticalAlign=middle;spacingTop=-1;spacingLeft=3;spacingRight=3;rotatable=0;labelPosition=right;points=[];portConstraint=eastwest;strokeColor=inherit;" vertex="1" parent="dkbqTGL4VmAJF5eFEC8l-144">
          <mxGeometry y="52" width="160" height="8" as="geometry" />
        </mxCell>
        <mxCell id="dkbqTGL4VmAJF5eFEC8l-147" value="+ method(type): type" style="text;strokeColor=none;fillColor=none;align=left;verticalAlign=top;spacingLeft=4;spacingRight=4;overflow=hidden;rotatable=0;points=[[0,0.5],[1,0.5]];portConstraint=eastwest;whiteSpace=wrap;html=1;" vertex="1" parent="dkbqTGL4VmAJF5eFEC8l-144">
          <mxGeometry y="60" width="160" height="26" as="geometry" />
        </mxCell>
        <mxCell id="dkbqTGL4VmAJF5eFEC8l-163" value="DBServer" style="whiteSpace=wrap;strokeWidth=2;verticalAlign=top;" vertex="1" parent="1">
          <mxGeometry x="69" y="2341" width="594" height="84" as="geometry" />
        </mxCell>
        <mxCell id="dkbqTGL4VmAJF5eFEC8l-164" value="Database" style="whiteSpace=wrap;strokeWidth=2;" vertex="1" parent="1">
          <mxGeometry x="336" y="2366" width="81" height="34" as="geometry" />
        </mxCell>
        <mxCell id="dkbqTGL4VmAJF5eFEC8l-165" value="AppServer" style="whiteSpace=wrap;strokeWidth=2;verticalAlign=top;" vertex="1" parent="1">
          <mxGeometry x="20" y="2207" width="714" height="84" as="geometry" />
        </mxCell>
        <mxCell id="dkbqTGL4VmAJF5eFEC8l-166" value="Order Service" style="whiteSpace=wrap;strokeWidth=2;" vertex="1" parent="1">
          <mxGeometry x="55" y="2232" width="113" height="34" as="geometry" />
        </mxCell>
        <mxCell id="dkbqTGL4VmAJF5eFEC8l-167" value="" style="whiteSpace=wrap;strokeWidth=2;" vertex="1" parent="1">
          <mxGeometry x="218" y="2232" width="133" height="34" as="geometry" />
        </mxCell>
        <mxCell id="dkbqTGL4VmAJF5eFEC8l-168" value="Product Service" style="whiteSpace=wrap;strokeWidth=2;" vertex="1" parent="1">
          <mxGeometry x="401" y="2232" width="127" height="34" as="geometry" />
        </mxCell>
        <mxCell id="dkbqTGL4VmAJF5eFEC8l-169" value="Review Service" style="whiteSpace=wrap;strokeWidth=2;" vertex="1" parent="1">
          <mxGeometry x="577" y="2232" width="122" height="34" as="geometry" />
        </mxCell>
        <mxCell id="dkbqTGL4VmAJF5eFEC8l-172" value="Client" style="whiteSpace=wrap;strokeWidth=2;verticalAlign=top;" vertex="1" parent="1">
          <mxGeometry x="305.5" y="2050" width="143" height="84" as="geometry" />
        </mxCell>
        <mxCell id="dkbqTGL4VmAJF5eFEC8l-173" value="Browser" style="whiteSpace=wrap;strokeWidth=2;" vertex="1" parent="1">
          <mxGeometry x="346.5" y="2075" width="73" height="34" as="geometry" />
        </mxCell>
        <mxCell id="dkbqTGL4VmAJF5eFEC8l-175" value="" style="curved=1;startArrow=none;endArrow=block;exitX=0;exitY=0.79;entryX=0.5;entryY=0.01;rounded=0;" edge="1" parent="1" target="dkbqTGL4VmAJF5eFEC8l-166">
          <mxGeometry relative="1" as="geometry">
            <Array as="points">
              <mxPoint x="111" y="2157" />
            </Array>
            <mxPoint x="308" y="2125.86" as="sourcePoint" />
          </mxGeometry>
        </mxCell>
        <mxCell id="dkbqTGL4VmAJF5eFEC8l-176" value="" style="curved=1;startArrow=none;endArrow=block;exitX=0.23;exitY=0.98;entryX=0.5;entryY=0.01;rounded=0;" edge="1" parent="1" target="dkbqTGL4VmAJF5eFEC8l-167">
          <mxGeometry relative="1" as="geometry">
            <Array as="points">
              <mxPoint x="284" y="2157" />
            </Array>
            <mxPoint x="336.8750000000009" y="2133" as="sourcePoint" />
          </mxGeometry>
        </mxCell>
        <mxCell id="dkbqTGL4VmAJF5eFEC8l-177" value="" style="curved=1;startArrow=none;endArrow=block;exitX=0.77;exitY=0.98;entryX=0.5;entryY=0.01;rounded=0;" edge="1" parent="1" target="dkbqTGL4VmAJF5eFEC8l-168">
          <mxGeometry relative="1" as="geometry">
            <Array as="points">
              <mxPoint x="464" y="2157" />
            </Array>
            <mxPoint x="411.1249999999991" y="2133" as="sourcePoint" />
          </mxGeometry>
        </mxCell>
        <mxCell id="dkbqTGL4VmAJF5eFEC8l-178" value="" style="curved=1;startArrow=none;endArrow=block;exitX=1;exitY=0.79;entryX=0.5;entryY=0.01;rounded=0;" edge="1" parent="1" target="dkbqTGL4VmAJF5eFEC8l-169">
          <mxGeometry relative="1" as="geometry">
            <Array as="points">
              <mxPoint x="638" y="2157" />
            </Array>
            <mxPoint x="440" y="2125.86" as="sourcePoint" />
          </mxGeometry>
        </mxCell>
        <mxCell id="dkbqTGL4VmAJF5eFEC8l-179" value="" style="curved=1;startArrow=none;endArrow=block;exitX=0.5;exitY=1;entryX=0;entryY=0.31;rounded=0;" edge="1" parent="1" source="dkbqTGL4VmAJF5eFEC8l-166" target="dkbqTGL4VmAJF5eFEC8l-164">
          <mxGeometry relative="1" as="geometry">
            <Array as="points">
              <mxPoint x="111" y="2341" />
            </Array>
          </mxGeometry>
        </mxCell>
        <mxCell id="dkbqTGL4VmAJF5eFEC8l-180" value="" style="curved=1;startArrow=none;endArrow=block;exitX=0.5;exitY=1;entryX=0.04;entryY=0;rounded=0;" edge="1" parent="1" source="dkbqTGL4VmAJF5eFEC8l-167" target="dkbqTGL4VmAJF5eFEC8l-164">
          <mxGeometry relative="1" as="geometry">
            <Array as="points">
              <mxPoint x="284" y="2341" />
            </Array>
          </mxGeometry>
        </mxCell>
        <mxCell id="dkbqTGL4VmAJF5eFEC8l-181" value="" style="curved=1;startArrow=none;endArrow=block;exitX=0.5;exitY=1;entryX=0.93;entryY=0;rounded=0;" edge="1" parent="1" source="dkbqTGL4VmAJF5eFEC8l-168" target="dkbqTGL4VmAJF5eFEC8l-164">
          <mxGeometry relative="1" as="geometry">
            <Array as="points">
              <mxPoint x="464" y="2341" />
            </Array>
          </mxGeometry>
        </mxCell>
        <mxCell id="dkbqTGL4VmAJF5eFEC8l-182" value="" style="curved=1;startArrow=none;endArrow=block;exitX=0.5;exitY=1;entryX=1;entryY=0.31;rounded=0;" edge="1" parent="1" source="dkbqTGL4VmAJF5eFEC8l-169" target="dkbqTGL4VmAJF5eFEC8l-164">
          <mxGeometry relative="1" as="geometry">
            <Array as="points">
              <mxPoint x="638" y="2341" />
            </Array>
          </mxGeometry>
        </mxCell>
        <mxCell id="dkbqTGL4VmAJF5eFEC8l-183" value="　" style="verticalAlign=top;align=left;spacingTop=8;spacingLeft=2;spacingRight=12;shape=cube;size=10;direction=south;fontStyle=4;html=1;whiteSpace=wrap;" vertex="1" parent="1">
          <mxGeometry x="16" y="2560" width="202" height="220" as="geometry" />
        </mxCell>
        <mxCell id="dkbqTGL4VmAJF5eFEC8l-200" value="购物系统" style="html=1;dropTarget=0;whiteSpace=wrap;" vertex="1" parent="1">
          <mxGeometry x="960" y="2733" width="790" height="450" as="geometry" />
        </mxCell>
        <mxCell id="dkbqTGL4VmAJF5eFEC8l-201" value="" style="shape=module;jettyWidth=8;jettyHeight=4;" vertex="1" parent="dkbqTGL4VmAJF5eFEC8l-200">
          <mxGeometry x="1" width="20" height="20" relative="1" as="geometry">
            <mxPoint x="-27" y="7" as="offset" />
          </mxGeometry>
        </mxCell>
        <mxCell id="dkbqTGL4VmAJF5eFEC8l-198" value="界面程序" style="html=1;dropTarget=0;whiteSpace=wrap;" vertex="1" parent="1">
          <mxGeometry x="1495" y="3060" width="180" height="90" as="geometry" />
        </mxCell>
        <mxCell id="dkbqTGL4VmAJF5eFEC8l-199" value="" style="shape=module;jettyWidth=8;jettyHeight=4;" vertex="1" parent="dkbqTGL4VmAJF5eFEC8l-198">
          <mxGeometry x="1" width="20" height="20" relative="1" as="geometry">
            <mxPoint x="-27" y="7" as="offset" />
          </mxGeometry>
        </mxCell>
        <mxCell id="dkbqTGL4VmAJF5eFEC8l-202" value="" style="endArrow=classic;html=1;rounded=0;exitX=0.25;exitY=1;exitDx=0;exitDy=0;entryX=0.724;entryY=1;entryDx=0;entryDy=0;entryPerimeter=0;" edge="1" parent="1" source="dkbqTGL4VmAJF5eFEC8l-198" target="dkbqTGL4VmAJF5eFEC8l-200">
          <mxGeometry width="50" height="50" relative="1" as="geometry">
            <mxPoint x="1500" y="3270" as="sourcePoint" />
            <mxPoint x="1570" y="3220" as="targetPoint" />
          </mxGeometry>
        </mxCell>
        <mxCell id="dkbqTGL4VmAJF5eFEC8l-204" value="" style="rounded=0;orthogonalLoop=1;jettySize=auto;html=1;endArrow=oval;endFill=0;sketch=0;sourcePerimeterSpacing=0;targetPerimeterSpacing=0;endSize=10;exitX=0.73;exitY=1.002;exitDx=0;exitDy=0;exitPerimeter=0;" edge="1" parent="1" source="dkbqTGL4VmAJF5eFEC8l-200">
          <mxGeometry relative="1" as="geometry">
            <mxPoint x="858" y="3245" as="sourcePoint" />
            <mxPoint x="1530" y="3230" as="targetPoint" />
            <Array as="points">
              <mxPoint x="1530" y="3190" />
            </Array>
          </mxGeometry>
        </mxCell>
        <mxCell id="dkbqTGL4VmAJF5eFEC8l-205" value="" style="ellipse;whiteSpace=wrap;html=1;align=center;aspect=fixed;fillColor=none;strokeColor=none;resizable=0;perimeter=centerPerimeter;rotatable=0;allowArrows=0;points=[];outlineConnect=1;" vertex="1" parent="1">
          <mxGeometry x="1260" y="3240" width="10" height="10" as="geometry" />
        </mxCell>
        <mxCell id="dkbqTGL4VmAJF5eFEC8l-206" value="用户界面" style="text;html=1;align=center;verticalAlign=middle;resizable=0;points=[];autosize=1;strokeColor=none;fillColor=none;" vertex="1" parent="1">
          <mxGeometry x="1495" y="3258" width="70" height="30" as="geometry" />
        </mxCell>
        <mxCell id="dkbqTGL4VmAJF5eFEC8l-210" value="" style="rounded=0;orthogonalLoop=1;jettySize=auto;html=1;endArrow=halfCircle;endFill=0;endSize=6;strokeWidth=1;sketch=0;" edge="1" target="dkbqTGL4VmAJF5eFEC8l-212" parent="1" source="dkbqTGL4VmAJF5eFEC8l-198">
          <mxGeometry relative="1" as="geometry">
            <mxPoint x="1630" y="3025" as="sourcePoint" />
          </mxGeometry>
        </mxCell>
        <mxCell id="dkbqTGL4VmAJF5eFEC8l-211" value="" style="rounded=0;orthogonalLoop=1;jettySize=auto;html=1;endArrow=oval;endFill=0;sketch=0;sourcePerimeterSpacing=0;targetPerimeterSpacing=0;endSize=10;exitX=0.823;exitY=0.394;exitDx=0;exitDy=0;exitPerimeter=0;" edge="1" target="dkbqTGL4VmAJF5eFEC8l-212" parent="1" source="dkbqTGL4VmAJF5eFEC8l-200">
          <mxGeometry relative="1" as="geometry">
            <mxPoint x="1590" y="3025" as="sourcePoint" />
          </mxGeometry>
        </mxCell>
        <mxCell id="dkbqTGL4VmAJF5eFEC8l-212" value="" style="ellipse;whiteSpace=wrap;html=1;align=center;aspect=fixed;fillColor=none;strokeColor=none;resizable=0;perimeter=centerPerimeter;rotatable=0;allowArrows=0;points=[];outlineConnect=1;" vertex="1" parent="1">
          <mxGeometry x="1605" y="3020" width="10" height="10" as="geometry" />
        </mxCell>
        <mxCell id="dkbqTGL4VmAJF5eFEC8l-213" value="前端" style="html=1;dropTarget=0;whiteSpace=wrap;" vertex="1" parent="1">
          <mxGeometry x="1480" y="2920" width="140" height="70" as="geometry" />
        </mxCell>
        <mxCell id="dkbqTGL4VmAJF5eFEC8l-214" value="" style="shape=module;jettyWidth=8;jettyHeight=4;" vertex="1" parent="dkbqTGL4VmAJF5eFEC8l-213">
          <mxGeometry x="1" width="20" height="20" relative="1" as="geometry">
            <mxPoint x="-27" y="7" as="offset" />
          </mxGeometry>
        </mxCell>
        <mxCell id="dkbqTGL4VmAJF5eFEC8l-215" value="商品管理" style="html=1;dropTarget=0;whiteSpace=wrap;" vertex="1" parent="1">
          <mxGeometry x="1270" y="2923" width="130" height="70" as="geometry" />
        </mxCell>
        <mxCell id="dkbqTGL4VmAJF5eFEC8l-216" value="" style="shape=module;jettyWidth=8;jettyHeight=4;" vertex="1" parent="dkbqTGL4VmAJF5eFEC8l-215">
          <mxGeometry x="1" width="20" height="20" relative="1" as="geometry">
            <mxPoint x="-27" y="7" as="offset" />
          </mxGeometry>
        </mxCell>
        <mxCell id="dkbqTGL4VmAJF5eFEC8l-217" value="" style="rounded=0;orthogonalLoop=1;jettySize=auto;html=1;endArrow=halfCircle;endFill=0;endSize=6;strokeWidth=1;sketch=0;" edge="1" target="dkbqTGL4VmAJF5eFEC8l-219" parent="1">
          <mxGeometry relative="1" as="geometry">
            <mxPoint x="1480" y="2958" as="sourcePoint" />
          </mxGeometry>
        </mxCell>
        <mxCell id="dkbqTGL4VmAJF5eFEC8l-218" value="" style="rounded=0;orthogonalLoop=1;jettySize=auto;html=1;endArrow=oval;endFill=0;sketch=0;sourcePerimeterSpacing=0;targetPerimeterSpacing=0;endSize=10;exitX=1;exitY=0.5;exitDx=0;exitDy=0;" edge="1" target="dkbqTGL4VmAJF5eFEC8l-219" parent="1" source="dkbqTGL4VmAJF5eFEC8l-215">
          <mxGeometry relative="1" as="geometry">
            <mxPoint x="1440" y="2958" as="sourcePoint" />
          </mxGeometry>
        </mxCell>
        <mxCell id="dkbqTGL4VmAJF5eFEC8l-219" value="" style="ellipse;whiteSpace=wrap;html=1;align=center;aspect=fixed;fillColor=none;strokeColor=none;resizable=0;perimeter=centerPerimeter;rotatable=0;allowArrows=0;points=[];outlineConnect=1;" vertex="1" parent="1">
          <mxGeometry x="1455" y="2953" width="10" height="10" as="geometry" />
        </mxCell>
        <mxCell id="dkbqTGL4VmAJF5eFEC8l-220" value="查看商品" style="text;html=1;align=center;verticalAlign=middle;resizable=0;points=[];autosize=1;strokeColor=none;fillColor=none;" vertex="1" parent="1">
          <mxGeometry x="1400" y="2923" width="70" height="30" as="geometry" />
        </mxCell>
        <mxCell id="dkbqTGL4VmAJF5eFEC8l-221" value="后端接口" style="html=1;dropTarget=0;whiteSpace=wrap;" vertex="1" parent="1">
          <mxGeometry x="1130" y="3030" width="150" height="70" as="geometry" />
        </mxCell>
        <mxCell id="dkbqTGL4VmAJF5eFEC8l-222" value="" style="shape=module;jettyWidth=8;jettyHeight=4;" vertex="1" parent="dkbqTGL4VmAJF5eFEC8l-221">
          <mxGeometry x="1" width="20" height="20" relative="1" as="geometry">
            <mxPoint x="-27" y="7" as="offset" />
          </mxGeometry>
        </mxCell>
        <mxCell id="dkbqTGL4VmAJF5eFEC8l-223" value="" style="rounded=0;orthogonalLoop=1;jettySize=auto;html=1;endArrow=halfCircle;endFill=0;endSize=6;strokeWidth=1;sketch=0;" edge="1" target="dkbqTGL4VmAJF5eFEC8l-225" parent="1">
          <mxGeometry relative="1" as="geometry">
            <mxPoint x="1270" y="2968" as="sourcePoint" />
          </mxGeometry>
        </mxCell>
        <mxCell id="dkbqTGL4VmAJF5eFEC8l-224" value="" style="rounded=0;orthogonalLoop=1;jettySize=auto;html=1;endArrow=oval;endFill=0;sketch=0;sourcePerimeterSpacing=0;targetPerimeterSpacing=0;endSize=10;" edge="1" target="dkbqTGL4VmAJF5eFEC8l-225" parent="1" source="dkbqTGL4VmAJF5eFEC8l-221">
          <mxGeometry relative="1" as="geometry">
            <mxPoint x="1230" y="2968" as="sourcePoint" />
          </mxGeometry>
        </mxCell>
        <mxCell id="dkbqTGL4VmAJF5eFEC8l-225" value="" style="ellipse;whiteSpace=wrap;html=1;align=center;aspect=fixed;fillColor=none;strokeColor=none;resizable=0;perimeter=centerPerimeter;rotatable=0;allowArrows=0;points=[];outlineConnect=1;" vertex="1" parent="1">
          <mxGeometry x="1245" y="2963" width="10" height="10" as="geometry" />
        </mxCell>
        <mxCell id="dkbqTGL4VmAJF5eFEC8l-226" value="数据库" style="html=1;dropTarget=0;whiteSpace=wrap;" vertex="1" parent="1">
          <mxGeometry x="1120" y="2881" width="110" height="53" as="geometry" />
        </mxCell>
        <mxCell id="dkbqTGL4VmAJF5eFEC8l-227" value="" style="shape=module;jettyWidth=8;jettyHeight=4;" vertex="1" parent="dkbqTGL4VmAJF5eFEC8l-226">
          <mxGeometry x="1" width="20" height="20" relative="1" as="geometry">
            <mxPoint x="-27" y="7" as="offset" />
          </mxGeometry>
        </mxCell>
        <mxCell id="dkbqTGL4VmAJF5eFEC8l-232" value="订单处理" style="html=1;dropTarget=0;whiteSpace=wrap;" vertex="1" parent="1">
          <mxGeometry x="1338" y="3020" width="110" height="59" as="geometry" />
        </mxCell>
        <mxCell id="dkbqTGL4VmAJF5eFEC8l-233" value="" style="shape=module;jettyWidth=8;jettyHeight=4;" vertex="1" parent="dkbqTGL4VmAJF5eFEC8l-232">
          <mxGeometry x="1" width="20" height="20" relative="1" as="geometry">
            <mxPoint x="-27" y="7" as="offset" />
          </mxGeometry>
        </mxCell>
        <mxCell id="dkbqTGL4VmAJF5eFEC8l-234" value="评价服务" style="html=1;dropTarget=0;whiteSpace=wrap;" vertex="1" parent="1">
          <mxGeometry x="1333" y="3090" width="115" height="60" as="geometry" />
        </mxCell>
        <mxCell id="dkbqTGL4VmAJF5eFEC8l-235" value="" style="shape=module;jettyWidth=8;jettyHeight=4;" vertex="1" parent="dkbqTGL4VmAJF5eFEC8l-234">
          <mxGeometry x="1" width="20" height="20" relative="1" as="geometry">
            <mxPoint x="-27" y="7" as="offset" />
          </mxGeometry>
        </mxCell>
        <mxCell id="dkbqTGL4VmAJF5eFEC8l-236" value="" style="rounded=0;orthogonalLoop=1;jettySize=auto;html=1;endArrow=halfCircle;endFill=0;endSize=6;strokeWidth=1;sketch=0;" edge="1" target="dkbqTGL4VmAJF5eFEC8l-238" parent="1">
          <mxGeometry relative="1" as="geometry">
            <mxPoint x="1488" y="2986" as="sourcePoint" />
          </mxGeometry>
        </mxCell>
        <mxCell id="dkbqTGL4VmAJF5eFEC8l-237" value="" style="rounded=0;orthogonalLoop=1;jettySize=auto;html=1;endArrow=oval;endFill=0;sketch=0;sourcePerimeterSpacing=0;targetPerimeterSpacing=0;endSize=10;" edge="1" target="dkbqTGL4VmAJF5eFEC8l-238" parent="1" source="dkbqTGL4VmAJF5eFEC8l-232">
          <mxGeometry relative="1" as="geometry">
            <mxPoint x="1448" y="2986" as="sourcePoint" />
          </mxGeometry>
        </mxCell>
        <mxCell id="dkbqTGL4VmAJF5eFEC8l-238" value="" style="ellipse;whiteSpace=wrap;html=1;align=center;aspect=fixed;fillColor=none;strokeColor=none;resizable=0;perimeter=centerPerimeter;rotatable=0;allowArrows=0;points=[];outlineConnect=1;" vertex="1" parent="1">
          <mxGeometry x="1463" y="2981" width="10" height="10" as="geometry" />
        </mxCell>
        <mxCell id="dkbqTGL4VmAJF5eFEC8l-239" value="" style="rounded=0;orthogonalLoop=1;jettySize=auto;html=1;endArrow=halfCircle;endFill=0;endSize=6;strokeWidth=1;sketch=0;exitX=0.164;exitY=0.989;exitDx=0;exitDy=0;exitPerimeter=0;" edge="1" target="dkbqTGL4VmAJF5eFEC8l-241" parent="1" source="dkbqTGL4VmAJF5eFEC8l-213">
          <mxGeometry relative="1" as="geometry">
            <mxPoint x="1488" y="3105" as="sourcePoint" />
          </mxGeometry>
        </mxCell>
        <mxCell id="dkbqTGL4VmAJF5eFEC8l-240" value="" style="rounded=0;orthogonalLoop=1;jettySize=auto;html=1;endArrow=oval;endFill=0;sketch=0;sourcePerimeterSpacing=0;targetPerimeterSpacing=0;endSize=10;" edge="1" target="dkbqTGL4VmAJF5eFEC8l-241" parent="1">
          <mxGeometry relative="1" as="geometry">
            <mxPoint x="1448" y="3105" as="sourcePoint" />
          </mxGeometry>
        </mxCell>
        <mxCell id="dkbqTGL4VmAJF5eFEC8l-241" value="" style="ellipse;whiteSpace=wrap;html=1;align=center;aspect=fixed;fillColor=none;strokeColor=none;resizable=0;perimeter=centerPerimeter;rotatable=0;allowArrows=0;points=[];outlineConnect=1;" vertex="1" parent="1">
          <mxGeometry x="1463" y="3100" width="10" height="10" as="geometry" />
        </mxCell>
        <mxCell id="dkbqTGL4VmAJF5eFEC8l-242" value="" style="rounded=0;orthogonalLoop=1;jettySize=auto;html=1;endArrow=halfCircle;endFill=0;endSize=6;strokeWidth=1;sketch=0;exitX=0;exitY=0.75;exitDx=0;exitDy=0;" edge="1" target="dkbqTGL4VmAJF5eFEC8l-244" parent="1" source="dkbqTGL4VmAJF5eFEC8l-232">
          <mxGeometry relative="1" as="geometry">
            <mxPoint x="1330" y="3065" as="sourcePoint" />
          </mxGeometry>
        </mxCell>
        <mxCell id="dkbqTGL4VmAJF5eFEC8l-243" value="" style="rounded=0;orthogonalLoop=1;jettySize=auto;html=1;endArrow=oval;endFill=0;sketch=0;sourcePerimeterSpacing=0;targetPerimeterSpacing=0;endSize=10;exitX=0.5;exitY=1;exitDx=0;exitDy=0;" edge="1" target="dkbqTGL4VmAJF5eFEC8l-244" parent="1" source="dkbqTGL4VmAJF5eFEC8l-222">
          <mxGeometry relative="1" as="geometry">
            <mxPoint x="1290" y="3065" as="sourcePoint" />
          </mxGeometry>
        </mxCell>
        <mxCell id="dkbqTGL4VmAJF5eFEC8l-244" value="" style="ellipse;whiteSpace=wrap;html=1;align=center;aspect=fixed;fillColor=none;strokeColor=none;resizable=0;perimeter=centerPerimeter;rotatable=0;allowArrows=0;points=[];outlineConnect=1;" vertex="1" parent="1">
          <mxGeometry x="1305" y="3060" width="10" height="10" as="geometry" />
        </mxCell>
        <mxCell id="dkbqTGL4VmAJF5eFEC8l-245" value="" style="rounded=0;orthogonalLoop=1;jettySize=auto;html=1;endArrow=halfCircle;endFill=0;endSize=6;strokeWidth=1;sketch=0;" edge="1" target="dkbqTGL4VmAJF5eFEC8l-247" parent="1">
          <mxGeometry relative="1" as="geometry">
            <mxPoint x="1333" y="3115" as="sourcePoint" />
          </mxGeometry>
        </mxCell>
        <mxCell id="dkbqTGL4VmAJF5eFEC8l-246" value="" style="rounded=0;orthogonalLoop=1;jettySize=auto;html=1;endArrow=oval;endFill=0;sketch=0;sourcePerimeterSpacing=0;targetPerimeterSpacing=0;endSize=10;" edge="1" target="dkbqTGL4VmAJF5eFEC8l-247" parent="1" source="dkbqTGL4VmAJF5eFEC8l-221">
          <mxGeometry relative="1" as="geometry">
            <mxPoint x="1293" y="3115" as="sourcePoint" />
          </mxGeometry>
        </mxCell>
        <mxCell id="dkbqTGL4VmAJF5eFEC8l-247" value="" style="ellipse;whiteSpace=wrap;html=1;align=center;aspect=fixed;fillColor=none;strokeColor=none;resizable=0;perimeter=centerPerimeter;rotatable=0;allowArrows=0;points=[];outlineConnect=1;" vertex="1" parent="1">
          <mxGeometry x="1308" y="3110" width="10" height="10" as="geometry" />
        </mxCell>
        <mxCell id="dkbqTGL4VmAJF5eFEC8l-248" value="" style="rounded=0;orthogonalLoop=1;jettySize=auto;html=1;endArrow=halfCircle;endFill=0;endSize=6;strokeWidth=1;sketch=0;" edge="1" target="dkbqTGL4VmAJF5eFEC8l-250" parent="1" source="dkbqTGL4VmAJF5eFEC8l-221">
          <mxGeometry relative="1" as="geometry">
            <mxPoint x="1170" y="3005" as="sourcePoint" />
          </mxGeometry>
        </mxCell>
        <mxCell id="dkbqTGL4VmAJF5eFEC8l-249" value="" style="rounded=0;orthogonalLoop=1;jettySize=auto;html=1;endArrow=oval;endFill=0;sketch=0;sourcePerimeterSpacing=0;targetPerimeterSpacing=0;endSize=10;" edge="1" target="dkbqTGL4VmAJF5eFEC8l-250" parent="1" source="dkbqTGL4VmAJF5eFEC8l-226">
          <mxGeometry relative="1" as="geometry">
            <mxPoint x="1130" y="3005" as="sourcePoint" />
          </mxGeometry>
        </mxCell>
        <mxCell id="dkbqTGL4VmAJF5eFEC8l-250" value="" style="ellipse;whiteSpace=wrap;html=1;align=center;aspect=fixed;fillColor=none;strokeColor=none;resizable=0;perimeter=centerPerimeter;rotatable=0;allowArrows=0;points=[];outlineConnect=1;" vertex="1" parent="1">
          <mxGeometry x="1145" y="3000" width="10" height="10" as="geometry" />
        </mxCell>
        <mxCell id="dkbqTGL4VmAJF5eFEC8l-251" value="购物系统" style="text;html=1;align=center;verticalAlign=middle;resizable=0;points=[];autosize=1;strokeColor=none;fillColor=none;" vertex="1" parent="1">
          <mxGeometry x="1473" y="2790" width="70" height="30" as="geometry" />
        </mxCell>
        <mxCell id="dkbqTGL4VmAJF5eFEC8l-252" value="浏览器" style="text;html=1;align=center;verticalAlign=middle;resizable=0;points=[];autosize=1;strokeColor=none;fillColor=none;" vertex="1" parent="1">
          <mxGeometry x="69" y="2600" width="60" height="30" as="geometry" />
        </mxCell>
        <mxCell id="dkbqTGL4VmAJF5eFEC8l-253" value="购物系统" style="html=1;dropTarget=0;whiteSpace=wrap;" vertex="1" parent="1">
          <mxGeometry x="20" y="2673" width="125" height="60" as="geometry" />
        </mxCell>
        <mxCell id="dkbqTGL4VmAJF5eFEC8l-254" value="" style="shape=module;jettyWidth=8;jettyHeight=4;" vertex="1" parent="dkbqTGL4VmAJF5eFEC8l-253">
          <mxGeometry x="1" width="20" height="20" relative="1" as="geometry">
            <mxPoint x="-27" y="7" as="offset" />
          </mxGeometry>
        </mxCell>
        <mxCell id="dkbqTGL4VmAJF5eFEC8l-255" value="" style="line;strokeWidth=1;fillColor=none;align=left;verticalAlign=middle;spacingTop=-1;spacingLeft=3;spacingRight=3;rotatable=0;labelPosition=right;points=[];portConstraint=eastwest;strokeColor=inherit;" vertex="1" parent="1">
          <mxGeometry x="218" y="2660" width="132" height="8" as="geometry" />
        </mxCell>
        <mxCell id="dkbqTGL4VmAJF5eFEC8l-256" value="" style="verticalAlign=top;align=left;spacingTop=8;spacingLeft=2;spacingRight=12;shape=cube;size=10;direction=south;fontStyle=4;html=1;whiteSpace=wrap;" vertex="1" parent="1">
          <mxGeometry x="342" y="2560" width="180" height="260" as="geometry" />
        </mxCell>
        <mxCell id="dkbqTGL4VmAJF5eFEC8l-258" value="Application Server" style="text;html=1;align=center;verticalAlign=middle;resizable=0;points=[];autosize=1;strokeColor=none;fillColor=none;" vertex="1" parent="1">
          <mxGeometry x="372" y="2580" width="120" height="30" as="geometry" />
        </mxCell>
        <mxCell id="dkbqTGL4VmAJF5eFEC8l-259" value="Product Service" style="html=1;dropTarget=0;whiteSpace=wrap;" vertex="1" parent="1">
          <mxGeometry x="367" y="2610" width="130" height="49" as="geometry" />
        </mxCell>
        <mxCell id="dkbqTGL4VmAJF5eFEC8l-260" value="" style="shape=module;jettyWidth=8;jettyHeight=4;" vertex="1" parent="dkbqTGL4VmAJF5eFEC8l-259">
          <mxGeometry x="1" width="20" height="20" relative="1" as="geometry">
            <mxPoint x="-27" y="7" as="offset" />
          </mxGeometry>
        </mxCell>
        <mxCell id="dkbqTGL4VmAJF5eFEC8l-261" value="Payment Service" style="html=1;dropTarget=0;whiteSpace=wrap;" vertex="1" parent="1">
          <mxGeometry x="382" y="2668" width="115" height="32" as="geometry" />
        </mxCell>
        <mxCell id="dkbqTGL4VmAJF5eFEC8l-262" value="" style="shape=module;jettyWidth=8;jettyHeight=4;" vertex="1" parent="dkbqTGL4VmAJF5eFEC8l-261">
          <mxGeometry x="1" width="20" height="20" relative="1" as="geometry">
            <mxPoint x="-27" y="7" as="offset" />
          </mxGeometry>
        </mxCell>
        <mxCell id="dkbqTGL4VmAJF5eFEC8l-263" value="HTTPS&amp;nbsp;" style="text;html=1;align=center;verticalAlign=middle;resizable=0;points=[];autosize=1;strokeColor=none;fillColor=none;" vertex="1" parent="1">
          <mxGeometry x="235.5" y="2619.5" width="70" height="30" as="geometry" />
        </mxCell>
        <mxCell id="dkbqTGL4VmAJF5eFEC8l-264" value="Order Service" style="html=1;dropTarget=0;whiteSpace=wrap;" vertex="1" parent="1">
          <mxGeometry x="383" y="2710" width="110" height="39" as="geometry" />
        </mxCell>
        <mxCell id="dkbqTGL4VmAJF5eFEC8l-265" value="" style="shape=module;jettyWidth=8;jettyHeight=4;" vertex="1" parent="dkbqTGL4VmAJF5eFEC8l-264">
          <mxGeometry x="1" width="20" height="20" relative="1" as="geometry">
            <mxPoint x="-27" y="7" as="offset" />
          </mxGeometry>
        </mxCell>
        <mxCell id="dkbqTGL4VmAJF5eFEC8l-266" value="Review Service" style="html=1;dropTarget=0;whiteSpace=wrap;" vertex="1" parent="1">
          <mxGeometry x="382" y="2760" width="109.5" height="30" as="geometry" />
        </mxCell>
        <mxCell id="dkbqTGL4VmAJF5eFEC8l-267" value="" style="shape=module;jettyWidth=8;jettyHeight=4;" vertex="1" parent="dkbqTGL4VmAJF5eFEC8l-266">
          <mxGeometry x="1" width="20" height="20" relative="1" as="geometry">
            <mxPoint x="-27" y="7" as="offset" />
          </mxGeometry>
        </mxCell>
        <mxCell id="dkbqTGL4VmAJF5eFEC8l-268" value="" style="line;strokeWidth=1;fillColor=none;align=left;verticalAlign=middle;spacingTop=-1;spacingLeft=3;spacingRight=3;rotatable=0;labelPosition=right;points=[];portConstraint=eastwest;strokeColor=inherit;" vertex="1" parent="1">
          <mxGeometry x="522" y="2673" width="158" height="8" as="geometry" />
        </mxCell>
        <mxCell id="dkbqTGL4VmAJF5eFEC8l-269" value="" style="verticalAlign=top;align=left;spacingTop=8;spacingLeft=2;spacingRight=12;shape=cube;size=10;direction=south;fontStyle=4;html=1;whiteSpace=wrap;" vertex="1" parent="1">
          <mxGeometry x="676.5" y="2533" width="155" height="302" as="geometry" />
        </mxCell>
        <mxCell id="dkbqTGL4VmAJF5eFEC8l-270" value="Database Server" style="text;html=1;align=center;verticalAlign=middle;resizable=0;points=[];autosize=1;strokeColor=none;fillColor=none;" vertex="1" parent="1">
          <mxGeometry x="701.5" y="2584" width="110" height="30" as="geometry" />
        </mxCell>
        <mxCell id="dkbqTGL4VmAJF5eFEC8l-271" value="" style="endArrow=classic;html=1;rounded=0;dashed=1;" edge="1" parent="1" source="dkbqTGL4VmAJF5eFEC8l-253" target="dkbqTGL4VmAJF5eFEC8l-266">
          <mxGeometry width="50" height="50" relative="1" as="geometry">
            <mxPoint x="150" y="2960" as="sourcePoint" />
            <mxPoint x="200" y="2910" as="targetPoint" />
          </mxGeometry>
        </mxCell>
        <mxCell id="dkbqTGL4VmAJF5eFEC8l-272" value="" style="endArrow=classic;html=1;rounded=0;dashed=1;exitX=1;exitY=0.75;exitDx=0;exitDy=0;" edge="1" parent="1" source="dkbqTGL4VmAJF5eFEC8l-253" target="dkbqTGL4VmAJF5eFEC8l-264">
          <mxGeometry width="50" height="50" relative="1" as="geometry">
            <mxPoint x="240" y="2910" as="sourcePoint" />
            <mxPoint x="280" y="2940" as="targetPoint" />
          </mxGeometry>
        </mxCell>
        <mxCell id="dkbqTGL4VmAJF5eFEC8l-273" value="" style="endArrow=classic;html=1;rounded=0;dashed=1;exitX=1;exitY=0.75;exitDx=0;exitDy=0;" edge="1" parent="1" source="dkbqTGL4VmAJF5eFEC8l-253" target="dkbqTGL4VmAJF5eFEC8l-261">
          <mxGeometry width="50" height="50" relative="1" as="geometry">
            <mxPoint x="280" y="3013" as="sourcePoint" />
            <mxPoint x="330" y="2963" as="targetPoint" />
          </mxGeometry>
        </mxCell>
        <mxCell id="dkbqTGL4VmAJF5eFEC8l-274" value="" style="endArrow=classic;html=1;rounded=0;" edge="1" parent="1">
          <mxGeometry width="50" height="50" relative="1" as="geometry">
            <mxPoint x="349" y="3030" as="sourcePoint" />
            <mxPoint x="399" y="2980" as="targetPoint" />
            <Array as="points">
              <mxPoint x="429" y="3017" />
            </Array>
          </mxGeometry>
        </mxCell>
        <mxCell id="dkbqTGL4VmAJF5eFEC8l-275" value="" style="endArrow=classic;html=1;rounded=0;dashed=1;exitX=1;exitY=0.75;exitDx=0;exitDy=0;" edge="1" parent="1" source="dkbqTGL4VmAJF5eFEC8l-253" target="dkbqTGL4VmAJF5eFEC8l-259">
          <mxGeometry width="50" height="50" relative="1" as="geometry">
            <mxPoint x="100" y="3031" as="sourcePoint" />
            <mxPoint x="150" y="2981" as="targetPoint" />
          </mxGeometry>
        </mxCell>
        <mxCell id="dkbqTGL4VmAJF5eFEC8l-276" value="" style="endArrow=classic;html=1;rounded=0;dashed=1;exitX=0.718;exitY=-0.029;exitDx=0;exitDy=0;exitPerimeter=0;" edge="1" parent="1" source="dkbqTGL4VmAJF5eFEC8l-256" target="dkbqTGL4VmAJF5eFEC8l-269">
          <mxGeometry width="50" height="50" relative="1" as="geometry">
            <mxPoint x="180" y="3061" as="sourcePoint" />
            <mxPoint x="230" y="3011" as="targetPoint" />
          </mxGeometry>
        </mxCell>
        <mxCell id="dkbqTGL4VmAJF5eFEC8l-277" value="" style="endArrow=classic;html=1;rounded=0;dashed=1;" edge="1" parent="1">
          <mxGeometry width="50" height="50" relative="1" as="geometry">
            <mxPoint x="230" y="3084" as="sourcePoint" />
            <mxPoint x="280" y="3034" as="targetPoint" />
          </mxGeometry>
        </mxCell>
        <mxCell id="dkbqTGL4VmAJF5eFEC8l-279" value="*" style="text;html=1;align=center;verticalAlign=middle;resizable=0;points=[];autosize=1;strokeColor=none;fillColor=none;" vertex="1" parent="1">
          <mxGeometry x="215" y="2638" width="30" height="30" as="geometry" />
        </mxCell>
        <mxCell id="dkbqTGL4VmAJF5eFEC8l-280" value="1" style="text;html=1;align=center;verticalAlign=middle;resizable=0;points=[];autosize=1;strokeColor=none;fillColor=none;" vertex="1" parent="1">
          <mxGeometry x="305" y="2638" width="30" height="30" as="geometry" />
        </mxCell>
        <mxCell id="dkbqTGL4VmAJF5eFEC8l-281" value="1" style="text;html=1;align=center;verticalAlign=middle;resizable=0;points=[];autosize=1;strokeColor=none;fillColor=none;" vertex="1" parent="1">
          <mxGeometry x="525" y="2638" width="30" height="30" as="geometry" />
        </mxCell>
        <mxCell id="dkbqTGL4VmAJF5eFEC8l-282" value="1" style="text;html=1;align=center;verticalAlign=middle;resizable=0;points=[];autosize=1;strokeColor=none;fillColor=none;" vertex="1" parent="1">
          <mxGeometry x="635" y="2638" width="30" height="30" as="geometry" />
        </mxCell>
        <mxCell id="dkbqTGL4VmAJF5eFEC8l-283" value="database of shopping" style="html=1;dropTarget=0;whiteSpace=wrap;" vertex="1" parent="1">
          <mxGeometry x="685" y="2654" width="115" height="60" as="geometry" />
        </mxCell>
        <mxCell id="dkbqTGL4VmAJF5eFEC8l-284" value="" style="shape=module;jettyWidth=8;jettyHeight=4;" vertex="1" parent="dkbqTGL4VmAJF5eFEC8l-283">
          <mxGeometry x="1" width="20" height="20" relative="1" as="geometry">
            <mxPoint x="-27" y="7" as="offset" />
          </mxGeometry>
        </mxCell>
      </root>
    </mxGraphModel>
  </diagram>
</mxfile>
